<svg width="59" height="61" viewBox="0 0 59 61" fill="none" xmlns="http://www.w3.org/2000/svg">
<path d="M20.406 54.2298C15.2533 52.2124 10.8855 48.7248 7.7461 44.1771C4.64083 39.5953 2.96877 34.2612 2.96877 28.722V15.5919C2.96877 15.1474 3.27588 14.7713 3.68537 14.6687L11.3291 12.8907V6.35987C11.3291 5.88117 11.6703 5.50504 12.1481 5.43666L29.5171 3.04316V0L11.7386 2.46188C9.79352 2.73543 8.36032 4.37668 8.36032 6.35987V10.5314L3.03702 11.7623C1.26258 12.1726 0 13.7797 0 15.5919V28.722C0 41.2365 7.67785 52.486 19.3141 57.0336L29.4829 61V57.7859L20.406 54.2298Z" fill="#D6F7EE"/>
<path d="M55.963 11.7623L50.6396 10.4972V6.35987C50.6396 4.41087 49.2064 2.73543 47.2614 2.46188L29.4829 0V3.00897L46.8519 5.40247C47.2955 5.47085 47.6709 5.88117 47.6709 6.32567V12.8565L55.3146 14.6345C55.7241 14.7371 56.0312 15.1132 56.0312 15.5577V28.722C56.0312 34.2612 54.3933 39.5953 51.2539 44.1771C48.1486 48.759 43.7466 52.2466 38.594 54.2298L29.4829 57.7859V61L39.6518 57.0336C51.288 52.486 58.9658 41.2365 58.9658 28.722V15.5919C59 13.7797 57.7374 12.1726 55.963 11.7623Z" fill="#D6F7EE"/>
<path d="M11.3291 6.35981V12.8906L3.68535 14.6687C3.27586 14.7712 2.96875 15.1474 2.96875 15.5919V28.7219C2.96875 34.2612 4.60669 39.5952 7.74608 44.1771C10.8513 48.7589 15.2533 52.2466 20.406 54.2298L29.4829 57.7858V56.1788V4.5134V3.00891L12.1139 5.40241C11.6703 5.47079 11.3291 5.88111 11.3291 6.35981Z" fill="#FFA500"/>
<path d="M29.4829 56.1788V57.7859L38.594 54.2298C43.7466 52.2124 48.1145 48.7248 51.2539 44.1771C54.3591 39.5953 56.0312 34.2612 56.0312 28.722V15.5919C56.0312 15.1474 55.7241 14.7713 55.3146 14.6687L47.6709 12.8907V6.35986C47.6709 5.88116 47.3296 5.50504 46.8519 5.43665L29.4829 3.04315V4.54764V56.1788Z" fill="#D58A00"/>
<path d="M42.4841 26.5336H16.55V43.8351H42.4841V26.5336Z" fill="#D6F7EE"/>
<path d="M23.1018 23.9349H19.8259V26.5336H23.1018V23.9349Z" fill="#9DD3E4"/>
<path d="M38.7305 23.9349H35.4547V26.5336H38.7305V23.9349Z" fill="#9DD3E4"/>
<path d="M38.7305 21.3705C38.7305 16.139 34.4992 11.899 29.2782 11.899C24.0573 11.899 19.8259 16.139 19.8259 21.3705V23.9349H23.1018V21.3705C23.1018 17.9512 25.8658 15.1816 29.2782 15.1816C32.6906 15.1816 35.4546 17.9512 35.4546 21.3705V23.9349H38.7305V21.3705Z" fill="#D6F7EE"/>
<path d="M31.7351 32.8934C31.7351 31.6624 30.7455 30.6367 29.4829 30.6367C28.2545 30.6367 27.2308 31.6283 27.2308 32.8934C27.2308 33.6798 27.6403 34.3637 28.2545 34.774L27.2308 39.6978H31.7351L30.7114 34.774C31.3256 34.3637 31.7351 33.6798 31.7351 32.8934Z" fill="#252735"/>
</svg>
