<svg width="69" height="63" viewBox="0 0 69 63" fill="none" xmlns="http://www.w3.org/2000/svg">
<g style="mix-blend-mode:multiply">
<path d="M38.8823 18.4639L59.0741 38.6557L43.8818 54.1622L23.5696 33.8501L38.8823 18.4639Z" fill="#FFA500"/>
</g>
<path d="M46.9897 26.5514H41.3285C41.0963 26.5514 40.8736 26.4591 40.7094 26.2949C40.5452 26.1307 40.4529 25.908 40.4529 25.6758V20.0079C40.4529 19.7757 40.3607 19.553 40.1965 19.3888C40.0323 19.2246 39.8096 19.1323 39.5774 19.1323H33.0606C32.8284 19.1323 32.6057 19.2246 32.4415 19.3888C32.2773 19.553 32.1851 19.7757 32.1851 20.0079V25.6758C32.1851 25.908 32.0928 26.1307 31.9286 26.2949C31.7644 26.4591 31.5417 26.5514 31.3095 26.5514H25.6416C25.4094 26.5514 25.1867 26.6436 25.0225 26.8078C24.8583 26.972 24.766 27.1947 24.766 27.4269V33.937C24.766 34.1692 24.8583 34.3919 25.0225 34.5561C25.1867 34.7203 25.4094 34.8126 25.6416 34.8126H31.3095C31.4245 34.8126 31.5383 34.8352 31.6446 34.8792C31.7508 34.9232 31.8473 34.9877 31.9286 35.069C32.0099 35.1503 32.0744 35.2468 32.1184 35.3531C32.1624 35.4593 32.1851 35.5731 32.1851 35.6881V41.356C32.1851 41.5882 32.2773 41.8109 32.4415 41.9751C32.6057 42.1393 32.8284 42.2316 33.0606 42.2316H39.5774C39.8096 42.2316 40.0323 42.1393 40.1965 41.9751C40.3607 41.8109 40.4529 41.5882 40.4529 41.356V35.6881C40.4529 35.5731 40.4756 35.4593 40.5196 35.3531C40.5636 35.2468 40.6281 35.1503 40.7094 35.069C40.7907 34.9877 40.8872 34.9232 40.9935 34.8792C41.0997 34.8352 41.2135 34.8126 41.3285 34.8126H46.9897C47.1049 34.8134 47.2192 34.7914 47.3258 34.7477C47.4325 34.704 47.5293 34.6396 47.6108 34.5581C47.6923 34.4766 47.7568 34.3797 47.8005 34.2731C47.8442 34.1665 47.8662 34.0522 47.8653 33.937V27.4269C47.8662 27.3117 47.8442 27.1975 47.8005 27.0908C47.7568 26.9842 47.6923 26.8873 47.6108 26.8058C47.5293 26.7243 47.4325 26.6599 47.3258 26.6162C47.2192 26.5725 47.1049 26.5505 46.9897 26.5514Z" fill="#D6F7EE"/>
<path d="M45.653 25.883H39.9918C39.7595 25.883 39.5368 25.7907 39.3726 25.6265C39.2084 25.4623 39.1162 25.2396 39.1162 25.0074V19.3395C39.1162 19.1073 39.0239 18.8846 38.8597 18.7204C38.6955 18.5562 38.4728 18.4639 38.2406 18.4639H31.7239C31.4917 18.4639 31.269 18.5562 31.1048 18.7204C30.9406 18.8846 30.8483 19.1073 30.8483 19.3395V25.0074C30.8483 25.2396 30.7561 25.4623 30.5919 25.6265C30.4277 25.7907 30.2049 25.883 29.9727 25.883H24.3049C24.0726 25.883 23.8499 25.9752 23.6857 26.1394C23.5215 26.3036 23.4293 26.5263 23.4293 26.7585V33.2686C23.4293 33.5008 23.5215 33.7235 23.6857 33.8877C23.8499 34.0519 24.0726 34.1442 24.3049 34.1442H29.9727C30.0877 34.1442 30.2016 34.1668 30.3078 34.2108C30.414 34.2548 30.5106 34.3193 30.5919 34.4006C30.6732 34.4819 30.7377 34.5784 30.7817 34.6847C30.8257 34.7909 30.8483 34.9048 30.8483 35.0197V40.6876C30.8483 40.9198 30.9406 41.1425 31.1048 41.3067C31.269 41.4709 31.4917 41.5632 31.7239 41.5632H38.2406C38.4728 41.5632 38.6955 41.4709 38.8597 41.3067C39.0239 41.1425 39.1162 40.9198 39.1162 40.6876V35.0197C39.1162 34.9048 39.1388 34.7909 39.1828 34.6847C39.2268 34.5784 39.2913 34.4819 39.3726 34.4006C39.4539 34.3193 39.5505 34.2548 39.6567 34.2108C39.7629 34.1668 39.8768 34.1442 39.9918 34.1442H45.653C45.7682 34.145 45.8824 34.123 45.9891 34.0793C46.0957 34.0356 46.1926 33.9712 46.2741 33.8897C46.3556 33.8082 46.42 33.7113 46.4637 33.6047C46.5074 33.4981 46.5294 33.3838 46.5285 33.2686V26.7585C46.5294 26.6433 46.5074 26.5291 46.4637 26.4224C46.42 26.3158 46.3556 26.2189 46.2741 26.1374C46.1926 26.0559 46.0957 25.9915 45.9891 25.9478C45.8824 25.9041 45.7682 25.8821 45.653 25.883Z" fill="#FFA500"/>
<path d="M47.5979 50.1853C43.6337 53.7989 39.4093 57.1164 34.9589 60.1108C33.4817 59.1283 6.21845 40.975 4.09969 21.5452C2.81639 9.63464 10.8503 2.63 20.5018 2.63C23.3476 2.66945 26.1432 3.38595 28.6571 4.72023C31.1711 6.05451 33.3313 7.96822 34.9589 10.303C36.5916 7.96393 38.7583 6.04774 41.2795 4.71333C43.8007 3.37892 46.6037 2.66474 49.456 2.63C59.1142 2.63 67.1481 9.63464 65.8648 21.5452" stroke="#D6F7EE" stroke-width="5.25" stroke-linecap="round" stroke-linejoin="round"/>
<path d="M51.6016 40.5874C50.4609 40.5874 49.3459 40.926 48.3979 41.5603C47.4499 42.1945 46.7114 43.0959 46.2762 44.1503C45.8409 45.2046 45.7284 46.3644 45.9528 47.4827C46.1773 48.6011 46.7287 49.6276 47.5371 50.4323C48.3456 51.237 49.3747 51.7836 50.494 52.0028C51.6134 52.2221 52.7727 52.1042 53.8249 51.664C54.8772 51.2238 55.7752 50.4812 56.405 49.5303C57.0349 48.5793 57.3683 47.4627 57.363 46.3221C57.3559 44.7987 56.7458 43.3401 55.6661 42.2654C54.5864 41.1907 53.125 40.5874 51.6016 40.5874ZM51.6016 50.045C50.8701 50.045 50.155 49.8283 49.5465 49.4223C48.938 49.0163 48.4634 48.4392 48.1825 47.7638C47.9017 47.0883 47.8272 46.3448 47.9685 45.6271C48.1097 44.9094 48.4604 44.2496 48.9762 43.7309C49.4921 43.2123 50.15 42.8581 50.867 42.7129C51.5839 42.5678 52.3278 42.6383 53.0047 42.9155C53.6817 43.1927 54.2613 43.6641 54.6706 44.2704C55.0799 44.8767 55.3004 45.5906 55.3044 46.3221C55.307 46.8101 55.2132 47.2937 55.0283 47.7453C54.8434 48.1969 54.5711 48.6074 54.227 48.9534C53.8829 49.2994 53.4738 49.5739 53.0232 49.7612C52.5726 49.9486 52.0895 50.045 51.6016 50.045Z" fill="#FFA500"/>
<path d="M51.6016 48.6213C52.8603 48.6213 53.8807 47.6009 53.8807 46.3422C53.8807 45.0834 52.8603 44.063 51.6016 44.063C50.3428 44.063 49.3224 45.0834 49.3224 46.3422C49.3224 47.6009 50.3428 48.6213 51.6016 48.6213Z" fill="#FFA500"/>
<g style="mix-blend-mode:multiply">
<path d="M37.5455 18.4639L57.7373 38.6557L42.545 54.1622L22.2329 33.8501L37.5455 18.4639Z" fill="#FFA500"/>
</g>
<path d="M45.653 26.5514H39.9918C39.7595 26.5514 39.5368 26.4591 39.3726 26.2949C39.2084 26.1307 39.1162 25.908 39.1162 25.6758V20.0079C39.1162 19.7757 39.0239 19.553 38.8597 19.3888C38.6955 19.2246 38.4728 19.1323 38.2406 19.1323H31.7239C31.4917 19.1323 31.269 19.2246 31.1048 19.3888C30.9406 19.553 30.8483 19.7757 30.8483 20.0079V25.6758C30.8483 25.908 30.7561 26.1307 30.5919 26.2949C30.4277 26.4591 30.2049 26.5514 29.9727 26.5514H24.3049C24.0726 26.5514 23.8499 26.6436 23.6857 26.8078C23.5215 26.972 23.4293 27.1947 23.4293 27.4269V33.937C23.4293 34.1692 23.5215 34.3919 23.6857 34.5561C23.8499 34.7203 24.0726 34.8126 24.3049 34.8126H29.9727C30.0877 34.8126 30.2016 34.8352 30.3078 34.8792C30.414 34.9232 30.5106 34.9877 30.5919 35.069C30.6732 35.1503 30.7377 35.2468 30.7817 35.3531C30.8257 35.4593 30.8483 35.5731 30.8483 35.6881V41.356C30.8483 41.5882 30.9406 41.8109 31.1048 41.9751C31.269 42.1393 31.4917 42.2316 31.7239 42.2316H38.2406C38.4728 42.2316 38.6955 42.1393 38.8597 41.9751C39.0239 41.8109 39.1162 41.5882 39.1162 41.356V35.6881C39.1162 35.5731 39.1388 35.4593 39.1828 35.3531C39.2268 35.2468 39.2913 35.1503 39.3726 35.069C39.4539 34.9877 39.5505 34.9232 39.6567 34.8792C39.7629 34.8352 39.8768 34.8126 39.9918 34.8126H45.653C45.7682 34.8134 45.8824 34.7914 45.9891 34.7477C46.0957 34.704 46.1926 34.6396 46.2741 34.5581C46.3556 34.4766 46.42 34.3797 46.4637 34.2731C46.5074 34.1665 46.5294 34.0522 46.5285 33.937V27.4269C46.5294 27.3117 46.5074 27.1975 46.4637 27.0908C46.42 26.9842 46.3556 26.8873 46.2741 26.8058C46.1926 26.7243 46.0957 26.6599 45.9891 26.6162C45.8824 26.5725 45.7682 26.5505 45.653 26.5514Z" fill="#D6F7EE"/>
<path d="M44.3162 25.883H38.655C38.4228 25.883 38.2001 25.7907 38.0359 25.6265C37.8717 25.4623 37.7794 25.2396 37.7794 25.0074V19.3395C37.7794 19.1073 37.6872 18.8846 37.523 18.7204C37.3588 18.5562 37.1361 18.4639 36.9038 18.4639H30.3871C30.1549 18.4639 29.9322 18.5562 29.768 18.7204C29.6038 18.8846 29.5115 19.1073 29.5115 19.3395V25.0074C29.5115 25.2396 29.4193 25.4623 29.2551 25.6265C29.0909 25.7907 28.8682 25.883 28.636 25.883H22.9681C22.7359 25.883 22.5132 25.9752 22.349 26.1394C22.1848 26.3036 22.0925 26.5263 22.0925 26.7585V33.2686C22.0925 33.5008 22.1848 33.7235 22.349 33.8877C22.5132 34.0519 22.7359 34.1442 22.9681 34.1442H28.636C28.751 34.1442 28.8648 34.1668 28.971 34.2108C29.0773 34.2548 29.1738 34.3193 29.2551 34.4006C29.3364 34.4819 29.4009 34.5784 29.4449 34.6847C29.4889 34.7909 29.5115 34.9048 29.5115 35.0197V40.6876C29.5115 40.9198 29.6038 41.1425 29.768 41.3067C29.9322 41.4709 30.1549 41.5632 30.3871 41.5632H36.9038C37.1361 41.5632 37.3588 41.4709 37.523 41.3067C37.6872 41.1425 37.7794 40.9198 37.7794 40.6876V35.0197C37.7794 34.9048 37.8021 34.7909 37.8461 34.6847C37.8901 34.5784 37.9546 34.4819 38.0359 34.4006C38.1172 34.3193 38.2137 34.2548 38.3199 34.2108C38.4262 34.1668 38.54 34.1442 38.655 34.1442H44.3162C44.4314 34.145 44.5457 34.123 44.6523 34.0793C44.7589 34.0356 44.8558 33.9712 44.9373 33.8897C45.0188 33.8082 45.0833 33.7113 45.1269 33.6047C45.1706 33.4981 45.1927 33.3838 45.1918 33.2686V26.7585C45.1927 26.6433 45.1706 26.5291 45.1269 26.4224C45.0833 26.3158 45.0188 26.2189 44.9373 26.1374C44.8558 26.0559 44.7589 25.9915 44.6523 25.9478C44.5457 25.9041 44.4314 25.8821 44.3162 25.883Z" fill="#FFA500"/>
<path d="M46.2612 50.1853C42.297 53.7989 38.0725 57.1164 33.6221 60.1108C32.145 59.1283 4.88169 40.975 2.76292 21.5452C1.47963 9.63464 9.51358 2.63 19.165 2.63C22.0108 2.66945 24.8064 3.38595 27.3204 4.72023C29.8344 6.05451 31.9945 7.96822 33.6221 10.303C35.2548 7.96393 37.4216 6.04774 39.9428 4.71333C42.464 3.37892 45.2669 2.66474 48.1193 2.63C57.7774 2.63 65.8113 9.63464 64.528 21.5452" stroke="#FFA500" stroke-width="5.25" stroke-linecap="round" stroke-linejoin="round"/>
<path d="M50.2648 40.5874C49.1241 40.5874 48.0092 40.926 47.0611 41.5603C46.1131 42.1945 45.3747 43.0959 44.9394 44.1503C44.5041 45.2046 44.3916 46.3644 44.6161 47.4827C44.8406 48.6011 45.3919 49.6276 46.2004 50.4323C47.0088 51.237 48.0379 51.7836 49.1573 52.0028C50.2766 52.2221 51.4359 52.1042 52.4882 51.664C53.5405 51.2238 54.4384 50.4812 55.0683 49.5303C55.6981 48.5793 56.0315 47.4627 56.0262 46.3221C56.0192 44.7987 55.409 43.3401 54.3293 42.2654C53.2496 41.1907 51.7882 40.5874 50.2648 40.5874ZM50.2648 50.045C49.5333 50.045 48.8182 49.8283 48.2097 49.4223C47.6012 49.0163 47.1266 48.4392 46.8458 47.7638C46.5649 47.0883 46.4904 46.3448 46.6317 45.6271C46.773 44.9094 47.1236 44.2496 47.6395 43.7309C48.1553 43.2123 48.8132 42.8581 49.5302 42.7129C50.2471 42.5678 50.991 42.6383 51.668 42.9155C52.3449 43.1927 52.9246 43.6641 53.3339 44.2704C53.7431 44.8767 53.9637 45.5906 53.9676 46.3221C53.9703 46.8101 53.8764 47.2937 53.6915 47.7453C53.5066 48.1969 53.2343 48.6074 52.8902 48.9534C52.5461 49.2994 52.137 49.5739 51.6864 49.7612C51.2359 49.9486 50.7527 50.045 50.2648 50.045Z" fill="#FFA500"/>
<path d="M50.2648 48.6213C51.5236 48.6213 52.544 47.6009 52.544 46.3422C52.544 45.0834 51.5236 44.063 50.2648 44.063C49.006 44.063 47.9856 45.0834 47.9856 46.3422C47.9856 47.6009 49.006 48.6213 50.2648 48.6213Z" fill="#FFA500"/>
</svg>
