<svg width="54" height="80" viewBox="0 0 54 80" fill="none" xmlns="http://www.w3.org/2000/svg">
<path d="M37.5609 28.2113C37.5609 25.6929 36.862 23.4686 35.7769 22.0899C35.6665 21.9061 35.5378 21.7591 35.3907 21.6488C34.7286 20.987 33.9745 20.601 33.1653 20.601C32.4296 20.601 31.7491 20.9135 31.1422 21.4649H22.7372C22.0751 21.4649 21.5417 22.1635 21.5417 23.0274V32.4944C21.5417 33.0643 21.7808 33.5606 22.1303 33.8364V49.1306H34.7102V35.3437C36.3654 34.2776 37.5609 31.4834 37.5609 28.2113Z" fill="#FFA500" stroke="white" stroke-width="2" stroke-miterlimit="10"/>
<path d="M23.712 24.0017C23.2522 24.976 23.7304 26.1525 24.7787 26.6672L25.4592 26.998C26.5075 27.5128 27.7582 27.1267 28.218 26.1708L32.8526 16.52C33.3124 15.5457 32.8343 14.3693 31.7859 13.8546L31.1054 13.5237C30.0571 13.009 28.8065 13.395 28.3467 14.3509L23.712 24.0017Z" fill="#FFA500" stroke="white" stroke-width="2" stroke-miterlimit="10"/>
<path d="M18.9118 22.6047C18.452 23.579 18.9302 24.7555 19.9785 25.2702L20.659 25.6011C21.7073 26.1158 22.9395 25.7298 23.4177 24.7739L28.0524 15.123C28.5122 14.1488 28.034 12.9723 26.9857 12.4576L26.3052 12.1267C25.2569 11.612 24.0063 11.998 23.5465 12.9539L18.9118 22.6047Z" fill="#FFA500" stroke="white" stroke-width="2" stroke-miterlimit="10"/>
<path d="M28.2548 25.7482C27.7398 26.796 28.1996 28.0644 29.2479 28.5791L29.9284 28.91C30.9767 29.4247 32.2457 28.9651 32.7607 27.9173L36.4574 20.215C36.9724 19.1672 36.5126 17.8988 35.4643 17.3841L34.7838 17.0532C33.7355 16.5385 32.4664 16.9981 31.9515 18.0459L28.2548 25.7482Z" fill="#FFA500" stroke="white" stroke-width="2" stroke-miterlimit="10"/>
<path d="M33.0549 27.2372C32.54 28.285 32.9998 29.5534 34.0481 30.0681L34.7286 30.399C35.7769 30.9137 37.0459 30.4541 37.5609 29.4063L40.2461 23.7996C40.761 22.7518 40.3012 21.4834 39.2529 20.9687L38.5724 20.6378C37.5241 20.1231 36.2551 20.5827 35.7401 21.6305L33.0549 27.2372Z" fill="#FFA500" stroke="white" stroke-width="2" stroke-miterlimit="10"/>
<path d="M27.3903 21.1341C24.7235 20.7849 22.0567 20.4356 19.4083 20.1047C18.1209 19.9393 16.668 19.4062 15.638 20.2334C11.5183 23.5974 20.5486 31.3364 22.2039 34.0938C23.2338 31.5754 24.6132 30.16 23.8223 27.1085C26.6179 27.2923 28.7145 25.8952 28.972 24.4798C29.0088 24.3695 29.0455 24.2408 29.0639 24.1121L29.1559 23.3952C29.2662 22.2922 28.4938 21.2812 27.3903 21.1341Z" fill="#FFA500" stroke="white" stroke-width="2" stroke-miterlimit="10"/>
<path d="M24.0247 27.2188C25.2385 27.2188 26.2317 28.7629 26.6731 29.7555C27.5559 31.5203 27.4455 33.8365 27.2248 35.8218" fill="#FFA500"/>
<path d="M24.0247 27.6784C25.4224 27.7887 26.3052 29.7924 26.6363 30.9321C27.0777 32.513 26.9489 34.2042 26.765 35.8035C26.7098 36.3917 27.6294 36.3917 27.6846 35.8035C27.9053 33.7998 28.0156 31.6674 27.188 29.774C26.5995 28.4321 25.6247 26.8695 24.0247 26.7593C23.4361 26.7225 23.4361 27.6416 24.0247 27.6784Z" fill="#FFA500"/>
<path d="M43.0509 42.8054C51.6719 34.1888 51.6719 20.2184 43.0509 11.6018C34.43 2.98514 20.4527 2.98514 11.8318 11.6018C3.21087 20.2184 3.21087 34.1888 11.8318 42.8054C20.4527 51.4221 34.43 51.4221 43.0509 42.8054Z" stroke="#FFA500" stroke-width="8" stroke-miterlimit="10"/>
<path d="M14.7062 64.7242H40.1567" stroke="#FFA500" stroke-width="8" stroke-miterlimit="10"/>
<path d="M27.4412 51.9359V80.2177" stroke="#FFA500" stroke-width="8" stroke-miterlimit="10"/>
</svg>
