<svg width="80" height="127" viewBox="0 0 80 127" fill="none" xmlns="http://www.w3.org/2000/svg">
<path d="M55.7689 9.27888C55.5159 9.23947 55.2863 9.50402 55.256 9.833C55.1965 11.5923 54.7405 13.3399 54.083 14.906C53.4256 16.472 52.5132 17.8816 51.4894 19.1069C49.4611 21.6273 47.0453 23.6202 44.5909 25.4735C42.1366 27.3269 39.6458 29.1579 37.1935 31.1284C34.7584 33.0515 32.3446 35.1615 30.1342 37.5701C29.0204 38.7981 27.9622 40.1182 26.9962 41.5527C26.5045 42.2937 26.0665 43.0096 25.6113 43.7729C25.3837 44.1546 25.2098 44.5113 24.9822 44.8929C24.791 45.2969 24.5634 45.6786 24.3722 46.0826C22.8429 49.3148 21.7183 53.0272 21.2626 56.8604C21.0443 58.8119 21.0062 60.7581 21.1309 62.7463C21.3093 64.7096 21.6313 66.6451 22.1679 68.4806C22.7044 70.3161 23.4382 72.099 24.3673 73.712C24.8318 74.5185 25.3136 75.2776 25.8661 75.9644C26.4015 76.6985 27.1513 77.3325 27.8525 77.2416C28.3928 77.2256 28.6851 76.4203 28.8034 75.9715C38.0916 48.5372 54.5465 48.7317 57.5688 22.6069C57.4738 23.3596 57.6187 24.4333 57.5875 25.7466C57.522 27.1546 57.4261 28.8915 57.1178 30.8457C56.8095 32.7998 56.3424 34.9461 55.6972 37.2148C55.052 39.4836 54.2116 41.9221 53.191 44.3659C52.1705 46.8098 50.9891 49.3287 49.664 51.8752C47.0311 56.9209 43.9307 62.0273 40.8131 67.1811C37.6591 72.3124 34.5051 77.4438 31.8205 82.6317C30.4783 85.2256 29.2625 87.8392 28.2268 90.4476C27.1911 93.0559 26.3527 95.6115 25.7845 98.1592C25.197 100.637 24.8432 103.085 24.7191 105.268C24.595 107.451 24.7005 109.369 24.8363 110.959C24.9407 111.776 25.0065 112.454 25.1432 113.059C25.203 113.385 25.2435 113.642 25.3204 113.921C25.3589 114.06 25.3609 114.177 25.3994 114.317C25.4014 114.434 25.4571 114.526 25.4763 114.596C25.6515 115.341 25.7305 115.737 25.7305 115.737C25.7497 115.806 25.7497 115.806 25.7689 115.876C26.1364 117.318 27.375 118.078 28.4646 117.531C29.5735 117.053 30.1581 115.442 29.7369 114.025C29.7369 114.025 29.6215 113.607 29.4292 112.909C29.4099 112.839 29.3715 112.7 29.3522 112.63C29.333 112.56 29.331 112.443 29.2753 112.351C29.254 112.164 29.1963 111.955 29.1386 111.746C29.0232 111.328 28.9401 110.697 28.8399 110.114C28.6738 108.854 28.5208 107.312 28.5609 105.483C28.5839 103.701 28.7637 101.61 29.2116 99.3939C29.6231 97.1555 30.2662 94.7697 31.1603 92.3061C32.0179 89.8202 33.0728 87.2817 34.2714 84.7154C34.411 84.4535 34.5142 84.1692 34.6366 83.9547L34.7459 84.0218C35.181 84.173 35.6525 84.3466 36.0876 84.4978C36.9578 84.8002 37.8624 85.0079 38.7841 85.1682C40.5741 85.5138 42.4307 85.5528 44.2469 85.3353C46.063 85.1177 47.8558 84.5961 49.5889 83.7483C51.3048 82.9478 52.9437 81.8683 54.4349 80.5824C57.4538 78.0327 60.0617 74.6516 62.1404 70.8877C64.219 67.1238 65.8221 62.952 66.9708 58.5594C68.1024 54.2141 68.8332 49.6228 68.9873 45.0251C69.1779 40.4498 68.8625 35.7956 67.9917 31.3219C67.1209 26.8481 65.641 22.5798 63.5753 18.8209C61.5461 15.0843 58.9483 11.8098 56.039 9.27092C55.8953 9.29859 55.8589 9.27623 55.7689 9.27888Z" fill="#D6F7EE"/>
<path d="M52.2591 9.27888C52.0061 9.23947 51.7765 9.50402 51.7462 9.833C51.6867 11.5923 51.2307 13.3399 50.5732 14.906C49.9158 16.472 49.0034 17.8816 47.9796 19.1069C45.9514 21.6273 43.5355 23.6202 41.0811 25.4735C38.6268 27.3269 36.136 29.1579 33.6837 31.1284C31.2486 33.0515 28.8348 35.1615 26.6244 37.5701C25.5106 38.7981 24.4524 40.1182 23.4864 41.5527C22.9947 42.2937 22.5567 43.0096 22.1015 43.7729C21.874 44.1546 21.7 44.5113 21.4724 44.8929C21.2812 45.2969 21.0536 45.6786 20.8624 46.0826C19.3331 49.3148 18.2085 53.0272 17.7528 56.8604C17.5345 58.8119 17.4964 60.7581 17.6211 62.7463C17.7995 64.7096 18.1216 66.6451 18.6581 68.4806C19.1946 70.3161 19.9284 72.099 20.8575 73.712C21.322 74.5185 21.8038 75.2776 22.3563 75.9644C22.8917 76.6985 23.6415 77.3325 24.3427 77.2416C24.883 77.2256 25.1753 76.4203 25.2936 75.9715C34.5818 48.5372 51.0367 48.7317 54.059 22.6069C53.964 23.3596 54.1089 24.4333 54.0777 25.7466C54.0122 27.1546 53.9163 28.8915 53.608 30.8457C53.2997 32.7998 52.8326 34.9461 52.1874 37.2148C51.5422 39.4836 50.7018 41.9221 49.6812 44.3659C48.6607 46.8098 47.4793 49.3287 46.1542 51.8752C43.5213 56.9209 40.4209 62.0273 37.3033 67.1811C34.1493 72.3124 30.9953 77.4438 28.3108 82.6317C26.9685 85.2256 25.7527 87.8392 24.717 90.4476C23.6813 93.0559 22.8429 95.6115 22.2747 98.1592C21.6872 100.637 21.3334 103.085 21.2093 105.268C21.0852 107.451 21.1907 109.369 21.3265 110.959C21.4309 111.776 21.4967 112.454 21.6334 113.059C21.6932 113.385 21.7337 113.642 21.8106 113.921C21.8491 114.06 21.8511 114.177 21.8896 114.317C21.8916 114.434 21.9473 114.526 21.9665 114.596C22.1417 115.341 22.2207 115.737 22.2207 115.737C22.2399 115.806 22.2399 115.806 22.2591 115.876C22.6266 117.318 23.8652 118.078 24.9548 117.531C26.0637 117.053 26.6483 115.442 26.2271 114.025C26.2271 114.025 26.1117 113.607 25.9194 112.909C25.9002 112.839 25.8617 112.7 25.8424 112.63C25.8232 112.56 25.8212 112.443 25.7655 112.351C25.7442 112.164 25.6865 111.955 25.6288 111.746C25.5134 111.328 25.4304 110.697 25.3301 110.114C25.164 108.854 25.011 107.312 25.0512 105.483C25.0742 103.701 25.2539 101.61 25.7018 99.3939C26.1133 97.1555 26.7564 94.7697 27.6505 92.3061C28.5081 89.8202 29.563 87.2817 30.7616 84.7154C30.9012 84.4535 31.0044 84.1692 31.1268 83.9547L31.2361 84.0218C31.6712 84.173 32.1427 84.3466 32.5778 84.4978C33.448 84.8002 34.3526 85.0079 35.2743 85.1682C37.0643 85.5138 38.9209 85.5528 40.7371 85.3353C42.5532 85.1177 44.346 84.5961 46.0791 83.7483C47.795 82.9478 49.434 81.8683 50.9252 80.5824C53.944 78.0327 56.5519 74.6516 58.6306 70.8877C60.7092 67.1238 62.3123 62.952 63.461 58.5594C64.5926 54.2141 65.3234 49.6228 65.4775 45.0251C65.6681 40.4498 65.3527 35.7956 64.4819 31.3219C63.6111 26.8481 62.1312 22.5798 60.0655 18.8209C58.0363 15.0843 55.4385 11.8098 52.5292 9.27092C52.3855 9.29859 52.3491 9.27623 52.2591 9.27888Z" fill="#FFA500"/>
</svg>
