<svg width="56" height="62" viewBox="0 0 56 62" fill="none" xmlns="http://www.w3.org/2000/svg">
<path d="M18.6667 27.8682H12.4444V34.0612H18.6667V27.8682ZM31.1111 27.8682H24.8889V34.0612H31.1111V27.8682ZM43.5556 27.8682H37.3333V34.0612H43.5556V27.8682ZM49.7778 6.19294H46.6667V0H40.4444V6.19294H15.5556V0H9.33333V6.19294H6.22222C2.76889 6.19294 0.0311111 8.97976 0.0311111 12.3859L0 55.7365C0 59.1426 2.76889 61.9294 6.22222 61.9294H49.7778C53.2 61.9294 56 59.1426 56 55.7365V12.3859C56 8.97976 53.2 6.19294 49.7778 6.19294ZM49.7778 55.7365H6.22222V21.6753H49.7778V55.7365Z" fill="#FFA500"/>
</svg>
