<svg width="76" height="91" viewBox="0 0 76 91" fill="none" xmlns="http://www.w3.org/2000/svg">
<g clip-path="url(#clip0)">
<rect width="76" height="91" fill="black"/>
<path d="M25.4218 67.1402L15.547 61.1697C12.4694 59.279 8.45088 60.2409 6.55784 63.3036C5.47294 65.0505 6.02646 67.3503 7.77559 68.4228L16.0895 73.553L27.1045 80.3307C35.5512 85.5272 47.1419 85.6931 55.4005 81.569C55.4005 81.569 63.1829 77.2348 72.9803 78.5505V58.9584L65.5188 54.8343C57.1939 50.1905 46.5552 58.0849 46.5552 58.0849C42.5034 60.7495 39.0827 62.4743 34.3556 63.3699C32.5954 63.7016 30.4367 63.6795 28.8315 64.3871C26.8388 65.2716 25.2225 66.7753 24.7133 68.9645C24.359 70.5014 25.0233 72.4142 26.3517 73.2987C28.1451 74.5039 30.8352 74.0837 32.8279 73.8294C37.7432 73.1992 42.5809 71.8613 47.1862 70.037C47.2416 70.0149 47.308 69.9928 47.3633 69.9707" stroke="#D6F7EE" stroke-width="2" stroke-miterlimit="10" stroke-linecap="round" stroke-linejoin="round"/>
<path d="M29.2632 64.2213L18.5471 57.9412C15.8348 56.2717 12.2702 57.112 10.5985 59.8319L10.3107 60.4621" stroke="#D6F7EE" stroke-width="2" stroke-miterlimit="10" stroke-linecap="round" stroke-linejoin="round"/>
<path d="M35.4626 63.1598L23.1966 55.9288C20.739 54.4141 17.595 54.9669 15.7795 57.0898" stroke="#D6F7EE" stroke-width="2" stroke-miterlimit="10" stroke-linecap="round" stroke-linejoin="round"/>
<path d="M56.9372 43.0389C65.8084 34.1788 65.8084 19.8137 56.9372 10.9535C48.0659 2.09336 33.6828 2.09336 24.8116 10.9535C15.9403 19.8136 15.9403 34.1788 24.8116 43.0389C33.6828 51.8991 48.0659 51.8991 56.9372 43.0389Z" stroke="#D6F7EE" stroke-width="2" stroke-miterlimit="10" stroke-linecap="round" stroke-linejoin="round"/>
<path d="M40.8761 4.31696V49.682" stroke="#D6F7EE" stroke-width="2" stroke-miterlimit="10" stroke-linecap="round" stroke-linejoin="round"/>
<path d="M36.0605 4.81451C36.0605 4.81451 18.4585 26.5406 36.0605 49.1844" stroke="#D6F7EE" stroke-width="2" stroke-miterlimit="10" stroke-linecap="round" stroke-linejoin="round"/>
<path d="M45.6917 4.81445C45.6917 4.81445 63.2936 26.5406 45.6917 49.1844" stroke="#D6F7EE" stroke-width="2" stroke-miterlimit="10" stroke-linecap="round" stroke-linejoin="round"/>
<path d="M18.1707 26.607C18.1928 26.5959 37.7764 37.2876 63.5593 26.1537" stroke="#D6F7EE" stroke-width="2" stroke-miterlimit="10" stroke-linecap="round" stroke-linejoin="round"/>
<path d="M22.6763 13.4165C22.6763 13.4165 38.2635 21.6979 59.0648 13.4165" stroke="#D6F7EE" stroke-width="2" stroke-miterlimit="10" stroke-linecap="round" stroke-linejoin="round"/>
<path d="M22.6763 40.2838C22.6763 40.2838 38.2635 48.5652 59.0648 40.2838" stroke="#D6F7EE" stroke-width="2" stroke-miterlimit="10" stroke-linecap="round" stroke-linejoin="round"/>
<path d="M23.4218 67.1402L13.547 61.1697C10.4694 59.279 6.45088 60.2409 4.55784 63.3036C3.47294 65.0505 4.02646 67.3503 5.77559 68.4228L14.0895 73.553L25.1045 80.3307C33.5512 85.5272 45.1419 85.6931 53.4005 81.569C53.4005 81.569 61.1829 77.2348 70.9803 78.5505V58.9584L63.5188 54.8343C55.1939 50.1905 44.5552 58.0849 44.5552 58.0849C40.5034 60.7495 37.0827 62.4743 32.3556 63.3699C30.5954 63.7016 28.4367 63.6795 26.8315 64.3871C24.8388 65.2716 23.2225 66.7753 22.7133 68.9645C22.359 70.5014 23.0233 72.4142 24.3517 73.2987C26.1451 74.5039 28.8352 74.0837 30.8279 73.8294C35.7432 73.1992 40.5809 71.8613 45.1862 70.037C45.2416 70.0149 45.308 69.9928 45.3633 69.9707" stroke="#FFA500" stroke-width="3" stroke-miterlimit="10" stroke-linecap="round" stroke-linejoin="round"/>
<path d="M27.2632 64.2213L16.5471 57.9412C13.8348 56.2717 10.2702 57.112 8.59855 59.8319L8.31071 60.4621" stroke="#FFA500" stroke-width="3" stroke-miterlimit="10" stroke-linecap="round" stroke-linejoin="round"/>
<path d="M33.4626 63.1598L21.1966 55.9288C18.739 54.4141 15.595 54.9669 13.7795 57.0898" stroke="#FFA500" stroke-width="3" stroke-miterlimit="10" stroke-linecap="round" stroke-linejoin="round"/>
<path d="M54.9372 43.0389C63.8084 34.1788 63.8084 19.8137 54.9372 10.9535C46.0659 2.09336 31.6828 2.09336 22.8116 10.9535C13.9403 19.8136 13.9403 34.1788 22.8116 43.0389C31.6828 51.8991 46.0659 51.8991 54.9372 43.0389Z" stroke="#FFA500" stroke-width="3" stroke-miterlimit="10" stroke-linecap="round" stroke-linejoin="round"/>
<path d="M38.8761 4.31696V49.682" stroke="#FFA500" stroke-width="3" stroke-miterlimit="10" stroke-linecap="round" stroke-linejoin="round"/>
<path d="M34.0605 4.81451C34.0605 4.81451 16.4585 26.5406 34.0605 49.1844" stroke="#FFA500" stroke-width="3" stroke-miterlimit="10" stroke-linecap="round" stroke-linejoin="round"/>
<path d="M43.6917 4.81445C43.6917 4.81445 61.2936 26.5406 43.6917 49.1844" stroke="#FFA500" stroke-width="3" stroke-miterlimit="10" stroke-linecap="round" stroke-linejoin="round"/>
<path d="M16.1707 26.607C16.1928 26.5959 35.7764 37.2876 61.5593 26.1537" stroke="#FFA500" stroke-width="3" stroke-miterlimit="10" stroke-linecap="round" stroke-linejoin="round"/>
<path d="M20.6763 13.4165C20.6763 13.4165 36.2635 21.6979 57.0648 13.4165" stroke="#FFA500" stroke-width="3" stroke-miterlimit="10" stroke-linecap="round" stroke-linejoin="round"/>
<path d="M20.6763 40.2838C20.6763 40.2838 36.2635 48.5652 57.0648 40.2838" stroke="#FFA500" stroke-width="3" stroke-miterlimit="10" stroke-linecap="round" stroke-linejoin="round"/>
</g>
<defs>
<clipPath id="clip0">
<rect width="76" height="91" fill="white"/>
</clipPath>
</defs>
</svg>
