<svg width="75" height="66" viewBox="0 0 75 66" fill="none" xmlns="http://www.w3.org/2000/svg">
<path d="M51.9897 28.5514H46.3285C46.0963 28.5514 45.8736 28.4591 45.7094 28.2949C45.5452 28.1307 45.453 27.908 45.453 27.6758V22.0079C45.453 21.7757 45.3607 21.553 45.1965 21.3888C45.0323 21.2246 44.8096 21.1323 44.5774 21.1323H38.0607C37.8284 21.1323 37.6057 21.2246 37.4415 21.3888C37.2773 21.553 37.1851 21.7757 37.1851 22.0079V27.6758C37.1851 27.908 37.0928 28.1307 36.9286 28.2949C36.7644 28.4591 36.5417 28.5514 36.3095 28.5514H30.6416C30.4094 28.5514 30.1867 28.6436 30.0225 28.8078C29.8583 28.972 29.7661 29.1947 29.7661 29.4269V35.937C29.7661 36.1692 29.8583 36.3919 30.0225 36.5561C30.1867 36.7203 30.4094 36.8126 30.6416 36.8126H36.3095C36.4245 36.8126 36.5383 36.8352 36.6446 36.8792C36.7508 36.9232 36.8473 36.9877 36.9286 37.069C37.0099 37.1503 37.0744 37.2468 37.1184 37.3531C37.1624 37.4593 37.1851 37.5731 37.1851 37.6881V43.356C37.1851 43.5882 37.2773 43.8109 37.4415 43.9751C37.6057 44.1393 37.8284 44.2316 38.0607 44.2316H44.5774C44.8096 44.2316 45.0323 44.1393 45.1965 43.9751C45.3607 43.8109 45.453 43.5882 45.453 43.356V37.6881C45.453 37.5731 45.4756 37.4593 45.5196 37.3531C45.5636 37.2468 45.6281 37.1503 45.7094 37.069C45.7907 36.9877 45.8872 36.9232 45.9935 36.8792C46.0997 36.8352 46.2136 36.8126 46.3285 36.8126H51.9897C52.105 36.8134 52.2192 36.7914 52.3259 36.7477C52.4325 36.704 52.5294 36.6396 52.6108 36.5581C52.6923 36.4766 52.7568 36.3797 52.8005 36.2731C52.8442 36.1665 52.8662 36.0522 52.8653 35.937V29.4269C52.8662 29.3117 52.8442 29.1975 52.8005 29.0908C52.7568 28.9842 52.6923 28.8873 52.6108 28.8058C52.5294 28.7243 52.4325 28.6599 52.3259 28.6162C52.2192 28.5725 52.105 28.5505 51.9897 28.5514Z" fill="#D6F7EE"/>
<path d="M50.653 27.883H44.9918C44.7596 27.883 44.5369 27.7907 44.3727 27.6265C44.2085 27.4623 44.1162 27.2396 44.1162 27.0074V21.3395C44.1162 21.1073 44.024 20.8846 43.8598 20.7204C43.6955 20.5562 43.4728 20.4639 43.2406 20.4639H36.7239C36.4917 20.4639 36.269 20.5562 36.1048 20.7204C35.9406 20.8846 35.8483 21.1073 35.8483 21.3395V27.0074C35.8483 27.2396 35.7561 27.4623 35.5919 27.6265C35.4277 27.7907 35.205 27.883 34.9727 27.883H29.3049C29.0727 27.883 28.8499 27.9752 28.6857 28.1394C28.5215 28.3036 28.4293 28.5263 28.4293 28.7585V35.2686C28.4293 35.5008 28.5215 35.7235 28.6857 35.8877C28.8499 36.0519 29.0727 36.1442 29.3049 36.1442H34.9727C35.0877 36.1442 35.2016 36.1668 35.3078 36.2108C35.414 36.2548 35.5106 36.3193 35.5919 36.4006C35.6732 36.4819 35.7377 36.5784 35.7817 36.6847C35.8257 36.7909 35.8483 36.9048 35.8483 37.0197V42.6876C35.8483 42.9198 35.9406 43.1425 36.1048 43.3067C36.269 43.4709 36.4917 43.5632 36.7239 43.5632H43.2406C43.4728 43.5632 43.6955 43.4709 43.8598 43.3067C44.024 43.1425 44.1162 42.9198 44.1162 42.6876V37.0197C44.1162 36.9048 44.1388 36.7909 44.1829 36.6847C44.2269 36.5784 44.2913 36.4819 44.3727 36.4006C44.454 36.3193 44.5505 36.2548 44.6567 36.2108C44.7629 36.1668 44.8768 36.1442 44.9918 36.1442H50.653C50.7682 36.145 50.8825 36.123 50.9891 36.0793C51.0957 36.0356 51.1926 35.9712 51.2741 35.8897C51.3556 35.8082 51.42 35.7113 51.4637 35.6047C51.5074 35.4981 51.5294 35.3838 51.5285 35.2686V28.7585C51.5294 28.6433 51.5074 28.5291 51.4637 28.4224C51.42 28.3158 51.3556 28.2189 51.2741 28.1374C51.1926 28.0559 51.0957 27.9915 50.9891 27.9478C50.8825 27.9041 50.7682 27.8821 50.653 27.883Z" fill="#FFA500"/>
<path d="M52.598 52.1853C48.6337 55.7989 44.4093 59.1164 39.9589 62.1108C38.4817 61.1283 11.2185 42.975 9.0997 23.5452C7.81641 11.6346 15.8504 4.63 25.5018 4.63C28.3476 4.66945 31.1432 5.38595 33.6572 6.72023C36.1711 8.05451 38.3313 9.96822 39.9589 12.303C41.5916 9.96393 43.7584 8.04774 46.2795 6.71333C48.8007 5.37892 51.6037 4.66474 54.4561 4.63C64.1142 4.63 72.1481 11.6346 70.8648 23.5452" stroke="#D6F7EE" stroke-width="5.25" stroke-linecap="round" stroke-linejoin="round"/>
<path d="M56.6016 42.5874C55.4609 42.5874 54.3459 42.926 53.3979 43.5603C52.4499 44.1945 51.7114 45.0959 51.2762 46.1503C50.8409 47.2046 50.7284 48.3644 50.9529 49.4827C51.1773 50.6011 51.7287 51.6276 52.5372 52.4323C53.3456 53.237 54.3747 53.7836 55.494 54.0028C56.6134 54.2221 57.7727 54.1042 58.825 53.664C59.8773 53.2238 60.7752 52.4812 61.4051 51.5303C62.0349 50.5793 62.3683 49.4627 62.363 48.3221C62.3559 46.7987 61.7458 45.3401 60.6661 44.2654C59.5864 43.1907 58.125 42.5874 56.6016 42.5874ZM56.6016 52.045C55.8701 52.045 55.155 51.8283 54.5465 51.4223C53.938 51.0163 53.4634 50.4392 53.1826 49.7638C52.9017 49.0883 52.8272 48.3448 52.9685 47.6271C53.1097 46.9094 53.4604 46.2496 53.9763 45.7309C54.4921 45.2123 55.15 44.8581 55.867 44.7129C56.5839 44.5678 57.3278 44.6383 58.0047 44.9155C58.6817 45.1927 59.2614 45.6641 59.6706 46.2704C60.0799 46.8767 60.3004 47.5906 60.3044 48.3221C60.307 48.8101 60.2132 49.2937 60.0283 49.7453C59.8434 50.1969 59.5711 50.6074 59.227 50.9534C58.8829 51.2994 58.4738 51.5739 58.0232 51.7612C57.5727 51.9486 57.0895 52.045 56.6016 52.045Z" fill="#FFA500"/>
<path d="M56.6016 50.6213C57.8603 50.6213 58.8807 49.6009 58.8807 48.3422C58.8807 47.0834 57.8603 46.063 56.6016 46.063C55.3428 46.063 54.3224 47.0834 54.3224 48.3422C54.3224 49.6009 55.3428 50.6213 56.6016 50.6213Z" fill="#FFA500"/>
<path d="M50.653 28.5514H44.9918C44.7596 28.5514 44.5369 28.4591 44.3727 28.2949C44.2085 28.1307 44.1162 27.908 44.1162 27.6758V22.0079C44.1162 21.7757 44.024 21.553 43.8598 21.3888C43.6955 21.2246 43.4728 21.1323 43.2406 21.1323H36.7239C36.4917 21.1323 36.269 21.2246 36.1048 21.3888C35.9406 21.553 35.8483 21.7757 35.8483 22.0079V27.6758C35.8483 27.908 35.7561 28.1307 35.5919 28.2949C35.4277 28.4591 35.205 28.5514 34.9727 28.5514H29.3049C29.0727 28.5514 28.8499 28.6436 28.6857 28.8078C28.5215 28.972 28.4293 29.1947 28.4293 29.4269V35.937C28.4293 36.1692 28.5215 36.3919 28.6857 36.5561C28.8499 36.7203 29.0727 36.8126 29.3049 36.8126H34.9727C35.0877 36.8126 35.2016 36.8352 35.3078 36.8792C35.414 36.9232 35.5106 36.9877 35.5919 37.069C35.6732 37.1503 35.7377 37.2468 35.7817 37.3531C35.8257 37.4593 35.8483 37.5731 35.8483 37.6881V43.356C35.8483 43.5882 35.9406 43.8109 36.1048 43.9751C36.269 44.1393 36.4917 44.2316 36.7239 44.2316H43.2406C43.4728 44.2316 43.6955 44.1393 43.8598 43.9751C44.024 43.8109 44.1162 43.5882 44.1162 43.356V37.6881C44.1162 37.5731 44.1388 37.4593 44.1829 37.3531C44.2269 37.2468 44.2913 37.1503 44.3727 37.069C44.454 36.9877 44.5505 36.9232 44.6567 36.8792C44.7629 36.8352 44.8768 36.8126 44.9918 36.8126H50.653C50.7682 36.8134 50.8825 36.7914 50.9891 36.7477C51.0957 36.704 51.1926 36.6396 51.2741 36.5581C51.3556 36.4766 51.42 36.3797 51.4637 36.2731C51.5074 36.1665 51.5294 36.0522 51.5285 35.937V29.4269C51.5294 29.3117 51.5074 29.1975 51.4637 29.0908C51.42 28.9842 51.3556 28.8873 51.2741 28.8058C51.1926 28.7243 51.0957 28.6599 50.9891 28.6162C50.8825 28.5725 50.7682 28.5505 50.653 28.5514Z" fill="#D6F7EE"/>
<path d="M49.3162 27.883H43.655C43.4228 27.883 43.2001 27.7907 43.0359 27.6265C42.8717 27.4623 42.7794 27.2396 42.7794 27.0074V21.3395C42.7794 21.1073 42.6872 20.8846 42.523 20.7204C42.3588 20.5562 42.1361 20.4639 41.9039 20.4639H35.3871C35.1549 20.4639 34.9322 20.5562 34.768 20.7204C34.6038 20.8846 34.5116 21.1073 34.5116 21.3395V27.0074C34.5116 27.2396 34.4193 27.4623 34.2551 27.6265C34.0909 27.7907 33.8682 27.883 33.636 27.883H27.9681C27.7359 27.883 27.5132 27.9752 27.349 28.1394C27.1848 28.3036 27.0925 28.5263 27.0925 28.7585V35.2686C27.0925 35.5008 27.1848 35.7235 27.349 35.8877C27.5132 36.0519 27.7359 36.1442 27.9681 36.1442H33.636C33.751 36.1442 33.8648 36.1668 33.9711 36.2108C34.0773 36.2548 34.1738 36.3193 34.2551 36.4006C34.3364 36.4819 34.4009 36.5784 34.4449 36.6847C34.4889 36.7909 34.5116 36.9048 34.5116 37.0197V42.6876C34.5116 42.9198 34.6038 43.1425 34.768 43.3067C34.9322 43.4709 35.1549 43.5632 35.3871 43.5632H41.9039C42.1361 43.5632 42.3588 43.4709 42.523 43.3067C42.6872 43.1425 42.7794 42.9198 42.7794 42.6876V37.0197C42.7794 36.9048 42.8021 36.7909 42.8461 36.6847C42.8901 36.5784 42.9546 36.4819 43.0359 36.4006C43.1172 36.3193 43.2137 36.2548 43.32 36.2108C43.4262 36.1668 43.54 36.1442 43.655 36.1442H49.3162C49.4314 36.145 49.5457 36.123 49.6523 36.0793C49.759 36.0356 49.8558 35.9712 49.9373 35.8897C50.0188 35.8082 50.0833 35.7113 50.127 35.6047C50.1706 35.4981 50.1927 35.3838 50.1918 35.2686V28.7585C50.1927 28.6433 50.1706 28.5291 50.127 28.4224C50.0833 28.3158 50.0188 28.2189 49.9373 28.1374C49.8558 28.0559 49.759 27.9915 49.6523 27.9478C49.5457 27.9041 49.4314 27.8821 49.3162 27.883Z" fill="#FFA500"/>
<path d="M51.2612 52.1853C47.297 55.7989 43.0726 59.1164 38.6221 62.1108C37.145 61.1283 9.88171 42.975 7.76294 23.5452C6.47965 11.6346 14.5136 4.63 24.165 4.63C27.0109 4.66945 29.8064 5.38595 32.3204 6.72023C34.8344 8.05451 36.9945 9.96822 38.6221 12.303C40.2548 9.96393 42.4216 8.04774 44.9428 6.71333C47.464 5.37892 50.267 4.66474 53.1193 4.63C62.7774 4.63 70.8114 11.6346 69.5281 23.5452" stroke="#FFA500" stroke-width="5.25" stroke-linecap="round" stroke-linejoin="round"/>
<path d="M55.2648 42.5874C54.1242 42.5874 53.0092 42.926 52.0612 43.5603C51.1131 44.1945 50.3747 45.0959 49.9394 46.1503C49.5041 47.2046 49.3916 48.3644 49.6161 49.4827C49.8406 50.6011 50.392 51.6276 51.2004 52.4323C52.0088 53.237 53.0379 53.7836 54.1573 54.0028C55.2766 54.2221 56.4359 54.1042 57.4882 53.664C58.5405 53.2238 59.4384 52.4812 60.0683 51.5303C60.6981 50.5793 61.0315 49.4627 61.0263 48.3221C61.0192 46.7987 60.4091 45.3401 59.3293 44.2654C58.2496 43.1907 56.7882 42.5874 55.2648 42.5874ZM55.2648 52.045C54.5333 52.045 53.8182 51.8283 53.2097 51.4223C52.6012 51.0163 52.1266 50.4392 51.8458 49.7638C51.565 49.0883 51.4905 48.3448 51.6317 47.6271C51.773 46.9094 52.1237 46.2496 52.6395 45.7309C53.1553 45.2123 53.8133 44.8581 54.5302 44.7129C55.2472 44.5678 55.991 44.6383 56.668 44.9155C57.3449 45.1927 57.9246 45.6641 58.3339 46.2704C58.7431 46.8767 58.9637 47.5906 58.9676 48.3221C58.9703 48.8101 58.8765 49.2937 58.6916 49.7453C58.5066 50.1969 58.2343 50.6074 57.8902 50.9534C57.5461 51.2994 57.137 51.5739 56.6865 51.7612C56.2359 51.9486 55.7528 52.045 55.2648 52.045Z" fill="#FFA500"/>
<path d="M55.2648 50.6213C56.5236 50.6213 57.544 49.6009 57.544 48.3422C57.544 47.0834 56.5236 46.063 55.2648 46.063C54.0061 46.063 52.9856 47.0834 52.9856 48.3422C52.9856 49.6009 54.0061 50.6213 55.2648 50.6213Z" fill="#FFA500"/>
</svg>
