<svg width="53" height="89" viewBox="0 0 53 89" fill="none" xmlns="http://www.w3.org/2000/svg">
<path d="M21.3365 60.5938C21.8369 60.1788 21.8824 59.441 21.473 58.9337C21.0635 58.4265 20.3356 58.3804 19.8352 58.7954C19.3348 59.2104 19.2893 59.9482 19.6987 60.4555C20.1082 60.9628 20.8361 61.0089 21.3365 60.5938ZM20.2902 59.3949C20.4721 59.2104 20.7451 59.2565 20.9271 59.441C21.109 59.6254 21.0635 59.9021 20.8816 60.0866C20.6996 60.271 20.4266 60.2249 20.2447 60.0405C20.0627 59.8099 20.1082 59.5332 20.2902 59.3949Z" fill="url(#paint0_linear)"/>
<path d="M21.8824 61.2854C22.7468 60.5476 22.8378 59.2103 22.1099 58.3803C21.382 57.5041 20.0627 57.4119 19.2438 58.1497C18.3794 58.8875 18.2884 60.2248 19.0163 61.0549C19.7442 61.931 21.0635 62.0233 21.8824 61.2854ZM19.4712 58.4264C20.1991 57.8269 21.2455 57.9191 21.8824 58.6108C22.5193 59.3025 22.3828 60.4093 21.7004 61.0549C20.9725 61.6544 19.9262 61.5621 19.2893 60.8704C18.6979 60.0865 18.7888 59.0259 19.4712 58.4264Z" fill="url(#paint1_linear)"/>
<path d="M17.8335 61.7466C17.879 61.7928 17.9245 61.885 17.97 61.9311L18.1975 61.7466C18.2429 61.7928 18.2884 61.8389 18.3339 61.885L18.1065 62.1156C18.152 62.1617 18.1975 62.2078 18.2884 62.3L18.5159 62.0694C18.5614 62.1156 18.6069 62.1617 18.6979 62.2078L18.5159 62.4384C18.5614 62.4845 18.6524 62.5306 18.6979 62.5767L18.8799 62.3C18.9253 62.3461 19.0163 62.3922 19.0618 62.3922L18.9253 62.6689C18.9708 62.715 19.0618 62.7612 19.1528 62.7612L19.2893 62.4845C19.3348 62.5306 19.4258 62.5306 19.4713 62.5767L19.3348 62.8534C19.4258 62.8995 19.4713 62.8995 19.5623 62.9456L19.6532 62.6228C19.6987 62.6228 19.7897 62.6689 19.8352 62.6689L19.7442 62.9917C19.8352 62.9917 19.8807 63.0378 19.9717 63.0378L20.0172 62.715C20.1082 62.715 20.1537 62.715 20.2447 62.7612L20.1992 63.084C20.2902 63.084 20.3356 63.084 20.4266 63.084V62.7612C20.5176 62.7612 20.5631 62.7612 20.6541 62.7612V63.084C20.7451 63.084 20.7906 63.084 20.8816 63.084L20.8361 62.7612C20.9271 62.7612 20.9726 62.7612 21.0635 62.715L21.109 63.0378C21.2 63.0378 21.2455 62.9917 21.3365 62.9917L21.2455 62.6689C21.3365 62.6689 21.382 62.6228 21.4275 62.6228L21.5185 62.9456C21.6095 62.9456 21.655 62.8995 21.7459 62.8534L21.655 62.5767C21.7005 62.5306 21.7914 62.5306 21.8369 62.4845L21.9734 62.7612C22.0644 62.715 22.1099 62.715 22.2009 62.6689L22.0644 62.3922C22.1099 62.3461 22.2009 62.3 22.2464 62.3L22.4284 62.5767C22.4738 62.5306 22.5648 62.4845 22.6103 62.4384L22.4284 62.1617C22.4738 62.1156 22.5193 62.0694 22.6103 62.0233L22.7923 62.2539C22.8378 62.2078 22.9288 62.1617 22.9743 62.1156L22.7468 61.885C22.7923 61.8389 22.8378 61.7928 22.8833 61.7466L23.1108 61.9772C23.1562 61.9311 23.2017 61.8389 23.2472 61.7928L23.0198 61.6083C23.0653 61.5622 23.1108 61.5161 23.1562 61.4238L23.4292 61.6083C23.4747 61.5622 23.5202 61.47 23.5657 61.4238L23.2927 61.2855C23.3382 61.2394 23.3382 61.1472 23.3837 61.101L23.6567 61.2394C23.7022 61.1472 23.7022 61.101 23.7477 61.0088L23.4747 60.8705C23.5202 60.8244 23.5202 60.7321 23.5657 60.686L23.8841 60.7782C23.9296 60.686 23.9296 60.6399 23.9296 60.5477L23.6112 60.4555C23.6112 60.4093 23.6567 60.3171 23.6567 60.2249L23.9751 60.271C23.9751 60.1788 24.0206 60.1326 24.0206 60.0404L23.7022 59.9943C23.7022 59.9021 23.7022 59.856 23.7022 59.7637H24.0206C24.0206 59.6715 24.0206 59.6254 24.0206 59.5332H23.7022C23.7022 59.4409 23.7022 59.3948 23.7022 59.3026L24.0206 59.2565C24.0206 59.1643 24.0206 59.1181 23.9751 59.0259L23.6567 59.072C23.6567 58.9798 23.6112 58.9337 23.6112 58.8415L23.9296 58.7492C23.9296 58.657 23.8841 58.6109 23.8841 58.5187L23.5657 58.6109C23.5657 58.5648 23.5202 58.4725 23.4747 58.4264L23.7477 58.3342C23.7022 58.242 23.7022 58.1959 23.6567 58.1036L23.3837 58.242C23.3382 58.1959 23.3382 58.1036 23.2927 58.0575L23.5657 57.9192C23.5202 57.8731 23.4747 57.7808 23.4292 57.7347L23.1562 57.9192C23.1108 57.8731 23.0653 57.7808 23.0198 57.7347L23.2927 57.5503C23.2472 57.5041 23.2017 57.4119 23.1562 57.3658L22.9288 57.5503C22.8833 57.5041 22.8378 57.458 22.7923 57.4119L23.0198 57.1813C22.9743 57.1352 22.9288 57.0891 22.8378 56.9969L22.6103 57.2275C22.5648 57.1813 22.5193 57.1352 22.4284 57.0891L22.6103 56.8585C22.5648 56.8124 22.4738 56.7663 22.4284 56.7202L22.2464 56.9969C22.2009 56.9508 22.1099 56.9047 22.0644 56.9047L22.2919 56.7202C22.2464 56.6741 22.1554 56.628 22.0644 56.628L21.9279 56.9047C21.8824 56.8585 21.7914 56.8585 21.7459 56.8124L21.8824 56.5357C21.7914 56.4896 21.7459 56.4896 21.655 56.4435L21.564 56.7663C21.5185 56.7663 21.4275 56.7202 21.382 56.7202L21.473 56.3974C21.382 56.3974 21.3365 56.3513 21.2455 56.3513L21.2 56.6741C21.109 56.6741 21.0635 56.628 20.9726 56.628L21.0181 56.3052C20.9271 56.3052 20.8816 56.3052 20.7906 56.3052V56.628C20.6996 56.628 20.6541 56.628 20.5631 56.628V56.3052C20.4721 56.3052 20.4266 56.3052 20.3356 56.3052L20.3811 56.628C20.2902 56.628 20.2447 56.628 20.1537 56.6741L20.1082 56.3513C20.0172 56.3513 19.9717 56.3974 19.8807 56.3974L19.9717 56.7202C19.8807 56.7202 19.8352 56.7663 19.7897 56.7663L19.6987 56.4435C19.6078 56.4435 19.5623 56.4896 19.4713 56.5357L19.5623 56.8124C19.5168 56.8585 19.4258 56.8585 19.3803 56.9047L19.2438 56.628C19.1528 56.6741 19.1073 56.6741 19.0163 56.7202L19.1528 56.9969C19.1073 57.043 19.0163 57.0891 18.9708 57.0891L18.7889 56.8124C18.7434 56.8585 18.6524 56.9047 18.6069 56.9508L18.7889 57.2275C18.7434 57.2736 18.6979 57.3197 18.6069 57.3658L18.4249 57.1352C18.3794 57.1813 18.2884 57.2275 18.2429 57.2736L18.4704 57.5041C18.4249 57.5503 18.3794 57.5964 18.3339 57.6425L18.1065 57.4119C18.061 57.458 18.0155 57.5503 17.97 57.5964L18.1975 57.7808C18.152 57.8269 18.1065 57.8731 18.061 57.9653L17.788 57.7808C17.7425 57.8269 17.697 57.9192 17.6515 57.9653L17.9245 58.1036C17.879 58.1497 17.879 58.242 17.8335 58.2881L17.5605 58.1497C17.515 58.242 17.5151 58.2881 17.4696 58.3803L17.7425 58.5187C17.697 58.5648 17.697 58.657 17.6515 58.7031L17.3331 58.6109C17.2876 58.7031 17.2876 58.7492 17.2876 58.8415L17.606 58.9337C17.606 58.9798 17.5605 59.072 17.5605 59.1643L17.2421 59.1181C17.2421 59.2104 17.1966 59.2565 17.1966 59.3487L17.515 59.3948C17.515 59.4871 17.515 59.5332 17.515 59.6254H17.1966C17.1966 59.7176 17.1966 59.7637 17.1966 59.856H17.515C17.515 59.9482 17.515 59.9943 17.515 60.0865L17.1966 60.1326C17.1966 60.2249 17.1966 60.271 17.2421 60.3632L17.5605 60.3171C17.5605 60.4093 17.606 60.4554 17.606 60.5477L17.2876 60.6399C17.2876 60.7321 17.3331 60.7782 17.3331 60.8705L17.6515 60.7782C17.6515 60.8244 17.697 60.9166 17.697 60.9627L17.4241 61.0549C17.4696 61.1472 17.4696 61.1933 17.515 61.2855L17.788 61.1472C17.8335 61.1933 17.8335 61.2855 17.879 61.3316L17.606 61.47C17.6515 61.5161 17.697 61.6083 17.7425 61.6544L18.0155 61.47C18.061 61.5161 18.1065 61.6083 18.152 61.6544L17.8335 61.7466ZM18.9253 57.7347C20.0172 56.8124 21.6095 56.9508 22.5193 58.0114C23.4292 59.1181 23.2927 60.7321 22.2464 61.6544C21.1545 62.5767 19.5623 62.4384 18.6524 61.3777C17.697 60.3171 17.8335 58.657 18.9253 57.7347Z" fill="url(#paint2_linear)"/>
<path d="M18.9708 7.2861C18.0154 7.6089 17.515 8.66952 17.879 9.63791C18.1974 10.6063 19.2438 11.1136 20.1991 10.7446C21.1545 10.4218 21.6549 9.36123 21.291 8.39283C20.9725 7.42444 19.9262 6.91719 18.9708 7.2861ZM19.8352 9.68403C19.4712 9.82237 19.0618 9.63791 18.9253 9.269C18.7888 8.90009 18.9708 8.48506 19.3348 8.34672C19.6987 8.20838 20.1081 8.39283 20.2446 8.76175C20.3811 9.13066 20.1991 9.54568 19.8352 9.68403Z" fill="url(#paint3_linear)"/>
<path d="M18.5159 5.94872C16.8326 6.5482 15.9682 8.39276 16.5596 10.099C17.1511 11.8052 18.9708 12.6814 20.6541 12.0819C22.3373 11.4824 23.2017 9.63783 22.6103 7.93162C22.0189 6.2254 20.1991 5.34923 18.5159 5.94872ZM20.4721 11.5746C19.1073 12.0819 17.5605 11.3441 17.0601 9.91452C16.5596 8.48498 17.2875 6.96322 18.6978 6.45597C20.1081 5.94872 21.6094 6.68654 22.1099 8.11607C22.5648 9.49949 21.8369 11.0674 20.4721 11.5746Z" fill="url(#paint4_linear)"/>
<path d="M24.7485 7.56273C24.703 7.42438 24.6575 7.33216 24.6575 7.19381L24.2026 7.37827C24.1571 7.28604 24.1116 7.1477 24.0661 7.05547L24.521 6.87102C24.4755 6.77879 24.43 6.64045 24.3845 6.54822L23.9296 6.77879C23.8841 6.68656 23.8386 6.59433 23.7476 6.50211L24.1571 6.22542C24.1116 6.13319 24.0206 5.99485 23.9751 5.90262L23.5657 6.17931C23.5202 6.08708 23.4292 5.99485 23.3837 5.90262L23.7476 5.57983C23.6566 5.4876 23.6112 5.39537 23.5202 5.30314L23.1562 5.62594C23.0652 5.53371 23.0197 5.4876 22.9288 5.39537L23.2472 5.02646C23.1562 4.93423 23.0652 4.842 22.9742 4.79589L22.6558 5.1648C22.5648 5.07257 22.4738 5.02646 22.3828 4.98034L22.6558 4.56532C22.5648 4.47309 22.4738 4.42698 22.3373 4.38086L22.0644 4.79589C21.9734 4.74977 21.8824 4.70366 21.7914 4.61143L22.0189 4.15029C21.9734 4.15029 21.8369 4.10418 21.7459 4.05806L21.5639 4.5192C21.473 4.47309 21.382 4.42698 21.2455 4.38086L21.4275 3.91972C21.291 3.87361 21.2 3.82749 21.0635 3.82749L20.927 4.28863C20.836 4.24252 20.6996 4.24252 20.6086 4.19641L20.6996 3.68915C20.5631 3.64304 20.4721 3.64304 20.3356 3.64304L20.2446 4.15029C20.1536 4.15029 20.0172 4.10418 19.9262 4.10418L19.9717 3.59692C19.8352 3.59692 19.7442 3.59692 19.6077 3.59692V4.10418C19.5167 4.10418 19.3803 4.10418 19.2893 4.10418L19.2438 3.59692C19.1073 3.59692 19.0163 3.59692 18.8798 3.64304L18.9253 4.15029C18.8343 4.15029 18.6979 4.19641 18.6069 4.19641L18.5159 3.68915C18.3794 3.73527 18.2884 3.73527 18.1519 3.78138L18.2884 4.24252C18.1974 4.28863 18.0609 4.28863 17.97 4.33475L17.788 3.87361C17.6515 3.91972 17.5605 3.96584 17.4695 4.01195L17.6515 4.47309C17.5605 4.5192 17.4695 4.56532 17.333 4.61143L17.1056 4.15029C17.0146 4.19641 16.8781 4.28863 16.7871 4.33475L17.0601 4.74977C16.9691 4.79589 16.8781 4.88812 16.7871 4.93423L16.5142 4.5192C16.4232 4.61143 16.3322 4.65755 16.2412 4.74977L16.5597 5.11869C16.4687 5.21091 16.3777 5.25703 16.3322 5.34926L15.9227 5.02646C15.8318 5.11869 15.7408 5.21091 15.6498 5.30314L16.0137 5.62594C15.9227 5.71817 15.8772 5.8104 15.7863 5.85651L15.4678 5.57983C15.3768 5.67205 15.3313 5.76428 15.2403 5.85651L15.6498 6.13319C15.6043 6.22542 15.5133 6.31765 15.4678 6.40988L15.0129 6.17931C14.9674 6.27153 14.8764 6.40988 14.8309 6.50211L15.2858 6.73268C15.2403 6.8249 15.1948 6.91713 15.1494 7.05547L14.6944 6.87102C14.6489 6.96324 14.6034 7.10159 14.5579 7.19381L15.0129 7.37827C14.9674 7.4705 14.9219 7.60884 14.9219 7.70107L14.4669 7.56273C14.4215 7.70107 14.4215 7.7933 14.376 7.93164L14.8764 8.02387C14.8309 8.11609 14.8309 8.25444 14.8309 8.34666L14.3305 8.25444C14.3305 8.39278 14.285 8.48501 14.285 8.62335L14.7854 8.66946C14.7854 8.76169 14.7854 8.90003 14.7854 8.99226H14.285C14.285 9.1306 14.285 9.22283 14.285 9.36117L14.7854 9.31506C14.7854 9.40729 14.7854 9.54563 14.8309 9.63786L14.3305 9.68397C14.3305 9.82231 14.376 9.91454 14.376 10.0529L14.8764 9.96065C14.8764 10.0529 14.9219 10.1912 14.9674 10.2835L14.5124 10.4218C14.5579 10.5601 14.5579 10.6524 14.6034 10.7907L15.0584 10.6062C15.1039 10.6985 15.1494 10.8368 15.1948 10.929L14.7399 11.1135C14.7854 11.2057 14.8309 11.3441 14.8764 11.4363L15.3313 11.2057C15.3768 11.298 15.4223 11.3902 15.5133 11.4824L15.0129 11.8052C15.0584 11.8974 15.1494 12.0358 15.1948 12.128L15.6043 11.8513C15.6498 11.9436 15.7408 12.0358 15.7863 12.128L15.4223 12.4508C15.5133 12.543 15.5588 12.6353 15.6498 12.7275L16.0137 12.4047C16.1047 12.4969 16.1502 12.543 16.2412 12.6353L15.9227 12.9581C16.0137 13.0503 16.1047 13.1425 16.1957 13.1886L16.5142 12.8197C16.6051 12.9119 16.6961 12.9581 16.7871 13.0042L16.5142 13.4192C16.6051 13.5114 16.6961 13.5575 16.8326 13.6037L17.1056 13.1886C17.1966 13.2347 17.2875 13.2809 17.3785 13.3731L17.1511 13.8342C17.2421 13.8803 17.3785 13.9265 17.4695 13.9726L17.6515 13.5114C17.7425 13.5575 17.8335 13.6037 17.97 13.6498L17.788 14.1109C17.9245 14.157 18.0154 14.2031 18.1519 14.2031L18.2884 13.742C18.3794 13.7881 18.5159 13.7881 18.6069 13.8342L18.4704 14.2954C18.6069 14.3415 18.6979 14.3415 18.8343 14.3415L18.9253 13.8342C19.0163 13.8342 19.1528 13.8803 19.2438 13.8803L19.1983 14.3876C19.3348 14.3876 19.4257 14.3876 19.5622 14.3876V13.8803C19.6532 13.8803 19.7897 13.8803 19.8807 13.8803L19.9262 14.3876C20.0627 14.3876 20.1536 14.3876 20.2901 14.3415L20.2446 13.8342C20.3356 13.8342 20.4721 13.7881 20.5631 13.7881L20.6541 14.2954C20.7906 14.2493 20.8815 14.2493 21.018 14.2031L20.8815 13.742C20.9725 13.6959 21.109 13.6959 21.2 13.6498L21.382 14.1109C21.5185 14.0648 21.6094 14.0187 21.7004 13.9726L21.5185 13.5114C21.6094 13.4653 21.7004 13.4192 21.8369 13.3731L22.0644 13.8342C22.1554 13.7881 22.2918 13.6959 22.3828 13.6498L22.1099 13.2347C22.2009 13.1886 22.2918 13.0964 22.3828 13.0503L22.6558 13.4653C22.7468 13.3731 22.8378 13.327 22.9288 13.2347L22.6103 12.8658C22.7013 12.7736 22.7923 12.7275 22.8378 12.6353L23.1562 13.0042C23.2472 12.912 23.3382 12.8197 23.4292 12.7275L23.0652 12.4047C23.1562 12.3125 23.2017 12.2202 23.2927 12.1741L23.6566 12.4969C23.7476 12.4047 23.7931 12.3125 23.8841 12.2202L23.4747 11.9436C23.5202 11.8513 23.6112 11.7591 23.6566 11.6669L24.0661 11.9436C24.1116 11.8513 24.2026 11.713 24.2481 11.6208L23.7931 11.3902C23.8386 11.298 23.8841 11.2057 23.9296 11.0674L24.3845 11.2518C24.43 11.1596 24.4755 11.0213 24.521 10.929L24.0661 10.7446C24.1116 10.6524 24.1571 10.514 24.1571 10.4218L24.612 10.5601C24.6575 10.4218 24.6575 10.3296 24.703 10.1912L24.2026 10.099C24.2481 10.0068 24.2481 9.86843 24.2481 9.7762L24.7485 9.86843C24.7485 9.73008 24.794 9.63786 24.794 9.49951L24.2936 9.4534C24.2936 9.36117 24.2936 9.22283 24.2936 9.1306H24.794C24.794 8.99226 24.794 8.90003 24.794 8.76169L24.2936 8.8078C24.2936 8.71558 24.2936 8.57723 24.2481 8.48501L24.7485 8.43889C24.7485 8.30055 24.703 8.20832 24.703 8.06998L24.2026 8.16221C24.2026 8.06998 24.1571 7.93164 24.1116 7.83941L24.7485 7.56273ZM20.927 12.8658C18.8343 13.6037 16.5142 12.4969 15.7863 10.3757C15.0584 8.25444 16.1502 5.90262 18.2429 5.1648C20.3356 4.42698 22.6558 5.53371 23.3837 7.65495C24.1116 9.7762 23.0197 12.128 20.927 12.8658Z" fill="url(#paint5_linear)"/>
<path d="M27.3417 16.555C28.0696 16.6012 28.661 16.0017 28.661 15.31C28.7065 14.5721 28.1151 13.9727 27.4327 13.9727C26.7503 13.9727 26.1133 14.526 26.1133 15.2177C26.1133 15.9556 26.6593 16.555 27.3417 16.555ZM27.4327 14.7566C27.7056 14.7566 27.9331 14.9872 27.9331 15.2638C27.9331 15.5405 27.7056 15.7711 27.4327 15.7711C27.1597 15.7711 26.9322 15.5405 26.9322 15.2638C26.9322 14.9872 27.1597 14.7566 27.4327 14.7566Z" fill="url(#paint6_linear)"/>
<path d="M27.3417 17.5696C28.6155 17.6157 29.6618 16.6012 29.7073 15.3561C29.7528 14.0649 28.752 13.0043 27.5236 12.9582C26.2498 12.9121 25.2035 13.9266 25.158 15.1716C25.067 16.4628 26.0678 17.5235 27.3417 17.5696ZM27.4781 13.3271C28.5245 13.3732 29.3434 14.2494 29.2979 15.31C29.2524 16.3706 28.388 17.2007 27.3417 17.1546C26.2953 17.1084 25.4764 16.2323 25.5219 15.1716C25.5674 14.1571 26.4318 13.3271 27.4781 13.3271Z" fill="url(#paint7_linear)"/>
<path d="M23.6112 14.8488C23.6112 14.941 23.6112 15.0333 23.6112 15.1255H23.9752C23.9752 15.2177 23.9752 15.2638 23.9752 15.3561H23.6112C23.6112 15.4483 23.6112 15.5405 23.6112 15.6327L23.9752 15.5866C23.9752 15.6789 23.9752 15.725 24.0206 15.8172L23.6567 15.9094C23.6567 16.0017 23.7022 16.0939 23.7022 16.1861L24.0661 16.0939C24.0661 16.1861 24.1116 16.2322 24.1116 16.3245L23.7932 16.4167C23.8387 16.5089 23.8387 16.6011 23.8842 16.6473L24.2026 16.5089C24.2481 16.6011 24.2481 16.6473 24.2936 16.7395L23.9752 16.8778C24.0206 16.9701 24.0661 17.0162 24.1116 17.1084L24.4301 16.9239C24.4756 17.0162 24.5211 17.0623 24.5666 17.1084L24.2936 17.2929C24.3391 17.3851 24.3846 17.4312 24.4301 17.5234L24.7031 17.2929C24.7485 17.339 24.794 17.4312 24.8395 17.4773L24.5666 17.8001C24.6121 17.8462 24.7031 17.9384 24.7485 17.9846L24.976 17.754C25.0215 17.8001 25.067 17.8462 25.158 17.9384L24.9305 18.2151C24.976 18.2612 25.067 18.3074 25.1125 18.3996L25.34 18.1229C25.3855 18.169 25.4764 18.2151 25.5219 18.2612L25.34 18.5379C25.4309 18.584 25.4764 18.6302 25.5674 18.6763L25.7494 18.3535C25.8404 18.3996 25.8859 18.4457 25.9769 18.4457L25.8404 18.7685C25.9314 18.8146 25.9769 18.8607 26.0679 18.8607L26.2043 18.5379C26.2953 18.584 26.3408 18.584 26.4318 18.6302L26.3408 18.953C26.4318 18.9991 26.5228 18.9991 26.5683 19.0452L26.6593 18.7224C26.7503 18.7224 26.7958 18.7685 26.8867 18.7685L26.8412 19.1374C26.9322 19.1374 27.0232 19.1835 27.1142 19.1835L27.1597 18.8146C27.2507 18.8146 27.2962 18.8146 27.3872 18.8146V19.1835C27.4782 19.1835 27.5691 19.1835 27.6601 19.1835V18.8146C27.7511 18.8146 27.7966 18.8146 27.8876 18.8146L27.9331 19.1835C28.0241 19.1835 28.1151 19.1835 28.2061 19.1374L28.1606 18.7685C28.2516 18.7685 28.297 18.7224 28.388 18.7224L28.479 19.0913C28.57 19.0913 28.661 19.0452 28.7065 18.9991L28.6155 18.6763C28.7065 18.6302 28.752 18.6302 28.843 18.584L28.9794 18.9068C29.0704 18.8607 29.1614 18.8607 29.2069 18.8146L29.0704 18.4918C29.1614 18.4457 29.2069 18.3996 29.2979 18.3996L29.4799 18.7224C29.5709 18.6763 29.6164 18.6302 29.7073 18.584L29.5254 18.3074C29.5709 18.2612 29.6619 18.2151 29.7073 18.169L29.9348 18.4457C30.0258 18.3996 30.0713 18.3535 30.1168 18.2612L29.8893 17.9846C29.9348 17.9384 30.0258 17.8923 30.0713 17.8001L30.2988 18.0307C30.3443 17.9846 30.4352 17.8923 30.4807 17.8462L30.0258 17.5695C30.0713 17.5234 30.1168 17.4312 30.1623 17.3851L30.4352 17.6156C30.4807 17.5234 30.5262 17.4773 30.5717 17.3851L30.2988 17.2006C30.3443 17.1545 30.3897 17.0623 30.4352 17.0162L30.7537 17.2006C30.7992 17.1084 30.8447 17.0623 30.8902 16.9701L30.5717 16.8317C30.6172 16.7395 30.6172 16.6934 30.6627 16.6011L30.9812 16.7395C31.0267 16.6473 31.0267 16.555 31.0722 16.5089L30.7537 16.4167C30.7992 16.3245 30.7992 16.2783 30.7992 16.1861L31.1176 16.2783C31.1176 16.1861 31.1631 16.0939 31.1631 16.0017L30.7992 15.9555C30.7992 15.8633 30.8447 15.8172 30.8447 15.725L31.2086 15.7711C31.2086 15.6789 31.2086 15.5866 31.2086 15.4944H30.8447C30.8447 15.4022 30.8447 15.3561 30.8447 15.2638H31.2086C31.2086 15.1716 31.2086 15.0794 31.2086 14.9872L30.8447 15.0333C30.8447 14.941 30.8447 14.8949 30.7992 14.8027L31.1631 14.7566C31.1631 14.6644 31.1176 14.5721 31.1176 14.4799L30.7537 14.5721C30.7537 14.4799 30.7082 14.4338 30.7082 14.3416L31.0267 14.2493C30.9812 14.1571 30.9812 14.0649 30.9357 14.0188L30.6172 14.1571C30.5717 14.0649 30.5717 14.0188 30.5262 13.9265L30.8447 13.7882C30.7992 13.696 30.7537 13.6498 30.7082 13.5576L30.3897 13.7421C30.3443 13.6498 30.2988 13.6037 30.2533 13.5576L30.5262 13.3732C30.4807 13.2809 30.4352 13.2348 30.3897 13.1426L30.1168 13.3732C30.0713 13.327 30.0258 13.2348 29.9803 13.1887L30.2533 12.9581C30.2078 12.912 30.1168 12.8198 30.0713 12.7737L29.8438 13.0042C29.7983 12.9581 29.7528 12.912 29.6618 12.8198L29.8893 12.5431C29.8438 12.497 29.7528 12.4509 29.7073 12.3587L29.4799 12.6353C29.4344 12.5892 29.3434 12.5431 29.2979 12.497L29.4799 12.2203C29.3889 12.1742 29.3434 12.1281 29.2524 12.082L29.1159 12.2203C29.0249 12.1742 28.9794 12.1281 28.8885 12.1281L29.0249 11.8053C28.934 11.7592 28.8885 11.7131 28.7975 11.7131L28.661 11.9897C28.57 11.9436 28.5245 11.9436 28.4335 11.8975L28.5245 11.5747C28.4335 11.5286 28.3425 11.5286 28.297 11.4825L28.2061 11.8514C28.1151 11.8514 28.0696 11.8053 27.9786 11.8053L28.0241 11.4364C27.9331 11.4364 27.8421 11.3903 27.7511 11.3903V11.8053C27.6601 11.8053 27.6146 11.8053 27.5237 11.8053V11.4364C27.4327 11.4364 27.3417 11.4364 27.2507 11.4364V11.8053C27.1597 11.8053 27.1142 11.8053 27.0232 11.8053L26.9777 11.4364C26.8867 11.4364 26.7958 11.4364 26.7048 11.4825L26.7503 11.8514C26.6593 11.8514 26.6138 11.8975 26.5228 11.8975V11.5286C26.4318 11.5286 26.3408 11.5747 26.2953 11.6208L26.3863 11.9436C26.2953 11.9897 26.2498 11.9897 26.1588 12.0359L26.0224 11.7131C25.9314 11.7592 25.8404 11.7592 25.7949 11.8053L25.9314 12.1281C25.8404 12.1742 25.7949 12.2203 25.7039 12.2203L25.5219 11.8975C25.4309 11.9436 25.3855 11.9897 25.2945 12.0359L25.4764 12.3125C25.4309 12.3587 25.34 12.4048 25.2945 12.4509L25.067 12.1742C24.976 12.2203 24.9305 12.2664 24.885 12.3587L25.1125 12.6353C25.067 12.6815 24.976 12.7276 24.9305 12.8198L24.7031 12.5892C24.6576 12.6353 24.5666 12.7276 24.5211 12.7737L24.794 13.0042C24.7485 13.0504 24.7031 13.1426 24.6576 13.1887L24.3846 12.912C24.3391 13.0042 24.2936 13.0504 24.2481 13.1426L24.5211 13.327C24.4756 13.3732 24.4301 13.4654 24.3846 13.5115L24.1116 13.3732C24.0661 13.4654 24.0206 13.5115 23.9752 13.6037L24.2936 13.7421C24.2481 13.8343 24.2481 13.8804 24.2026 13.9726L23.8842 13.8343C23.8387 13.9265 23.8387 14.0188 23.7932 14.0649L24.1116 14.1571C24.0661 14.2493 24.0661 14.2954 24.0661 14.3877L23.7477 14.2954C23.7477 14.3877 23.7022 14.4799 23.7022 14.5721L24.0661 14.6182C24.0661 14.7105 24.0206 14.7566 24.0206 14.8488H23.6112ZM27.5237 12.3587C29.1159 12.4048 30.3443 13.7421 30.2533 15.3561C30.2078 16.9701 28.8885 18.2151 27.2962 18.1229C25.7039 18.0768 24.4756 16.7395 24.5666 15.1255C24.6121 13.5576 25.9314 12.3125 27.5237 12.3587Z" fill="url(#paint8_linear)"/>
<path d="M26.7502 42.2404C27.3416 42.2404 27.7966 41.7792 27.8421 41.2259C27.8421 40.6264 27.3871 40.1653 26.8412 40.1191C26.2498 40.1191 25.7948 40.5803 25.7494 41.1336C25.7039 41.7331 26.1588 42.2404 26.7502 42.2404ZM26.7957 40.7647C27.0232 40.7647 27.2051 40.9492 27.2051 41.1798C27.2051 41.4103 27.0232 41.5948 26.7957 41.5948C26.5682 41.5948 26.3863 41.4103 26.3863 41.1798C26.3863 40.9492 26.5682 40.7647 26.7957 40.7647Z" fill="url(#paint9_linear)"/>
<path d="M26.7047 43.0704C27.7056 43.1166 28.57 42.2865 28.6155 41.272C28.661 40.2575 27.8421 39.3813 26.8412 39.3352C25.8404 39.2891 24.976 40.1191 24.9305 41.1337C24.885 42.1482 25.6584 43.0243 26.7047 43.0704ZM26.8412 39.658C27.7056 39.7041 28.3425 40.3958 28.3425 41.272C28.297 42.1482 27.6146 42.7938 26.7502 42.7938C25.8859 42.7476 25.249 42.0559 25.249 41.1798C25.249 40.2575 25.9768 39.6119 26.8412 39.658Z" fill="url(#paint10_linear)"/>
<path d="M23.7021 40.857C23.7021 40.9493 23.7021 40.9954 23.7021 41.0876H23.9751C23.9751 41.1337 23.9751 41.226 23.9751 41.2721H23.7021C23.7021 41.3643 23.7021 41.4104 23.7021 41.5026L23.9751 41.4565C23.9751 41.5026 23.9751 41.5949 24.0206 41.641L23.7476 41.6871C23.7476 41.7793 23.7931 41.8254 23.7931 41.9177L24.0661 41.8716C24.0661 41.9177 24.1116 42.0099 24.1116 42.056L23.8386 42.1482C23.8386 42.1944 23.8841 42.2866 23.9296 42.3327L24.2026 42.2405C24.2481 42.2866 24.2481 42.3788 24.2936 42.4249L24.0206 42.5633C24.0661 42.6094 24.0661 42.7016 24.1116 42.7477L24.3391 42.6094C24.3846 42.6555 24.3846 42.7016 24.43 42.7938L24.2026 42.9322C24.2481 42.9783 24.2936 43.0705 24.3391 43.1166L24.5665 42.9322C24.612 42.9783 24.6575 43.0244 24.703 43.0705L24.4755 43.255C24.521 43.3011 24.5665 43.3472 24.612 43.3933L24.794 43.2089C24.8395 43.255 24.885 43.3011 24.9305 43.3472L24.7485 43.5778C24.794 43.6239 24.8395 43.67 24.9305 43.7161L25.1125 43.4855C25.1579 43.5317 25.2034 43.5778 25.2489 43.5778L25.067 43.8083C25.1124 43.8545 25.2034 43.9006 25.2489 43.9006L25.3854 43.67C25.4309 43.7161 25.4764 43.7161 25.5674 43.7622L25.4309 44.0389C25.4764 44.085 25.5674 44.085 25.6129 44.1311L25.7039 43.8545C25.7494 43.9006 25.8403 43.9006 25.8858 43.9006L25.7949 44.1773C25.8403 44.1773 25.9313 44.2234 25.9768 44.2234L26.0223 43.9467C26.0678 43.9467 26.1588 43.9928 26.2043 43.9928L26.2498 44.2695C26.3408 44.2695 26.3863 44.2695 26.4773 44.3156L26.5227 44.0389C26.5682 44.0389 26.6592 44.0389 26.7047 44.0389V44.3156C26.7957 44.3156 26.8412 44.3156 26.9322 44.3156V44.0389C26.9777 44.0389 27.0687 44.0389 27.1142 44.0389L27.1597 44.3156C27.2506 44.3156 27.2961 44.3156 27.3871 44.2695L27.3416 43.9928C27.3871 43.9928 27.4781 43.9467 27.5236 43.9467L27.5691 44.2234C27.6146 44.2234 27.7056 44.1773 27.7511 44.1773L27.6601 43.9006C27.7056 43.9006 27.7966 43.8545 27.8421 43.8545L27.9331 44.1311C27.9785 44.085 28.0695 44.085 28.115 44.0389L27.9785 43.7622C28.024 43.7161 28.115 43.7161 28.1605 43.67L28.297 43.9006C28.3425 43.8545 28.4335 43.8083 28.479 43.8083L28.3425 43.5778C28.388 43.5317 28.4335 43.4855 28.479 43.4855L28.6609 43.7161C28.7064 43.67 28.7519 43.6239 28.8429 43.5778L28.6155 43.3472C28.6609 43.3011 28.7064 43.255 28.7519 43.2089L28.9339 43.3933C28.9794 43.3472 29.0249 43.3011 29.0704 43.255L28.8429 43.0705C28.8884 43.0244 28.9339 42.9783 28.9794 42.9322L29.2069 43.1166C29.2524 43.0705 29.2979 43.0244 29.3434 42.9322L29.1159 42.7477C29.1614 42.7016 29.1614 42.6555 29.2069 42.5633L29.4343 42.7016C29.4798 42.6555 29.4798 42.5633 29.5253 42.5172L29.2979 42.4249C29.3434 42.3788 29.3434 42.2866 29.3888 42.2405L29.6618 42.3327C29.7073 42.2866 29.7073 42.1944 29.7528 42.1482L29.4798 42.056C29.4798 42.0099 29.5253 41.9177 29.5253 41.8716L29.7983 41.9177C29.7983 41.8716 29.8438 41.7793 29.8438 41.6871L29.5708 41.641C29.5708 41.5949 29.5708 41.5026 29.6163 41.4565L29.8893 41.5026C29.8893 41.4565 29.8893 41.3643 29.8893 41.2721H29.6163C29.6163 41.226 29.6163 41.1337 29.6163 41.0876H29.8893C29.8893 40.9954 29.8893 40.9493 29.8893 40.857L29.5708 40.9032C29.5708 40.857 29.5708 40.7648 29.5253 40.7187L29.7983 40.6726C29.7983 40.5804 29.7528 40.5343 29.7528 40.442L29.4798 40.4881C29.4798 40.442 29.4343 40.3498 29.4343 40.3037L29.7073 40.2115C29.7073 40.1653 29.6618 40.0731 29.6163 40.027L29.3434 40.1192C29.2979 40.0731 29.2979 39.9809 29.2524 39.9348L29.5253 39.7964C29.4798 39.7503 29.4798 39.6581 29.4343 39.612L29.2069 39.7503C29.1614 39.7042 29.1614 39.6581 29.1159 39.5659L29.3434 39.4275C29.2979 39.3814 29.2524 39.2892 29.2069 39.2431L28.9794 39.4275C28.9339 39.3814 28.8884 39.3353 28.8429 39.2892L29.0704 39.1047C29.0249 39.0586 28.9794 39.0125 28.9339 38.9664L28.7519 39.1969C28.7064 39.1508 28.6609 39.1047 28.6155 39.0586L28.7974 38.828C28.7519 38.7819 28.7064 38.7358 28.6155 38.6897L28.4335 38.9203C28.388 38.8741 28.3425 38.828 28.297 38.828L28.4335 38.5975C28.388 38.5513 28.297 38.5052 28.2515 38.5052L28.1605 38.7358C28.115 38.6897 28.0695 38.6897 27.9785 38.6436L28.115 38.3669C28.0695 38.3208 27.9785 38.3208 27.9331 38.2747L27.8421 38.5513C27.7966 38.5052 27.7056 38.5052 27.6601 38.5052L27.7511 38.2286C27.7056 38.2286 27.6146 38.1824 27.5691 38.1824L27.5236 38.4591C27.4781 38.4591 27.3871 38.413 27.3416 38.413L27.3871 38.1363C27.2961 38.1363 27.2506 38.1363 27.1597 38.0902L27.1142 38.3669C27.0687 38.3669 26.9777 38.3669 26.9322 38.3669V38.0902C26.8412 38.0902 26.7957 38.0902 26.7047 38.0902V38.3669C26.6592 38.3669 26.5682 38.3669 26.5227 38.3669L26.4773 38.0902C26.3863 38.0902 26.3408 38.0902 26.2498 38.1363L26.2953 38.413C26.2498 38.413 26.1588 38.4591 26.1133 38.4591L26.0678 38.1824C26.0223 38.1824 25.9313 38.2286 25.8858 38.2286L25.9768 38.5052C25.9313 38.5052 25.8403 38.5513 25.7949 38.5513L25.6584 38.2747C25.6129 38.3208 25.5219 38.3208 25.4764 38.3669L25.6129 38.6436C25.5674 38.6897 25.4764 38.6897 25.4309 38.7358L25.2944 38.5052C25.2489 38.5514 25.1579 38.5975 25.1125 38.5975L25.2489 38.828C25.2034 38.8741 25.1579 38.9203 25.1125 38.9203L24.9305 38.6897C24.885 38.7358 24.8395 38.7819 24.7485 38.828L24.9305 39.0586C24.885 39.1047 24.8395 39.1508 24.794 39.1969L24.612 39.0125C24.5665 39.0586 24.521 39.1047 24.4755 39.1508L24.703 39.3353C24.6575 39.3814 24.612 39.4275 24.5665 39.4736L24.3391 39.2892C24.2936 39.3353 24.2481 39.3814 24.2026 39.4736L24.43 39.612C24.3846 39.6581 24.3846 39.7042 24.3391 39.7964L24.0661 39.6581C24.0206 39.7042 24.0206 39.7964 23.9751 39.8425L24.2481 39.9809C24.2026 40.027 24.2026 40.1192 24.1571 40.1653L23.8841 40.0731C23.8386 40.1192 23.8386 40.2115 23.7931 40.2576L24.0661 40.3498C24.0661 40.3959 24.0206 40.4881 24.0206 40.5343L23.7476 40.4881C23.7476 40.5343 23.7021 40.6265 23.7021 40.7187L23.9751 40.7648C23.9751 40.8109 23.9751 40.9032 23.9296 40.9493L23.7021 40.857ZM26.8412 38.828C28.115 38.8741 29.1159 39.9809 29.0704 41.2721C29.0249 42.5633 27.9331 43.5778 26.6592 43.5317C25.3854 43.4855 24.3846 42.3788 24.43 41.0876C24.4755 39.7964 25.5674 38.7819 26.8412 38.828Z" fill="url(#paint11_linear)"/>
<path d="M37.6232 44.085C38.5786 43.8083 39.17 42.7938 38.9425 41.8254C38.6696 40.857 37.6687 40.2575 36.7133 40.4881C35.758 40.7648 35.1666 41.7793 35.394 42.7476C35.667 43.716 36.6678 44.3155 37.6232 44.085ZM36.7588 40.6264C37.6687 40.3958 38.5786 40.9492 38.806 41.8254C39.0335 42.7476 38.4876 43.6699 37.6232 43.9005C36.7133 44.1311 35.8035 43.5777 35.576 42.7015C35.303 41.7793 35.849 40.857 36.7588 40.6264Z" fill="url(#paint12_linear)"/>
<path d="M37.4412 43.3933C38.0781 43.2088 38.4421 42.6093 38.2601 41.9637C38.0781 41.3181 37.4867 40.9492 36.8498 41.1337C36.2129 41.3181 35.8489 41.9176 36.0309 42.5632C36.2129 43.2088 36.8498 43.5777 37.4412 43.3933Z" fill="url(#paint13_linear)"/>
<path d="M37.8961 45.0535C39.3974 44.6384 40.3073 43.0705 39.9433 41.5488C39.5339 40.027 37.9871 39.1047 36.4858 39.4737C34.9845 39.8887 34.0747 41.4566 34.4386 42.9783C34.8026 44.5001 36.3948 45.4685 37.8961 45.0535ZM36.5768 40.027C37.8051 39.7042 39.079 40.442 39.3974 41.6871C39.7159 42.9322 38.988 44.2234 37.7597 44.5462C36.5313 44.869 35.2575 44.1312 34.9391 42.8861C34.6206 41.5949 35.3485 40.3498 36.5768 40.027Z" fill="url(#paint14_linear)"/>
<path d="M38.2601 46.4829C40.5348 45.8834 41.8996 43.4855 41.3082 41.1798C40.7168 38.8741 38.3511 37.4907 36.0764 38.0902C33.8017 38.6896 32.4369 41.0876 33.0283 43.3933C33.6198 45.699 35.9399 47.0824 38.2601 46.4829ZM36.1674 38.3668C38.3056 37.8135 40.4893 39.1047 41.0352 41.272C41.5811 43.4394 40.3073 45.6528 38.1691 46.2062C36.0309 46.7596 33.8472 45.4684 33.3013 43.301C32.7554 41.1337 34.0292 38.9202 36.1674 38.3668Z" fill="url(#paint15_linear)"/>
<path d="M31.982 43.67C32.073 44.0389 32.2094 44.4078 32.3914 44.7306L31.618 45.0995C31.8 45.4684 32.0275 45.8834 32.3004 46.2062L32.9373 45.6529C33.1648 45.9296 33.4378 46.2062 33.7107 46.4368L33.1648 47.0824C33.4833 47.3591 33.8472 47.5897 34.2567 47.8202L34.6661 47.0824C34.9846 47.2669 35.3485 47.4052 35.7125 47.4974L35.485 48.3275C35.8944 48.4658 36.3494 48.5119 36.7588 48.5581L36.8043 47.6819C37.1682 47.6819 37.5322 47.6819 37.9416 47.6358L38.0781 48.4658C38.4876 48.4197 38.9425 48.2814 39.3519 48.143L39.0335 47.3591C39.3974 47.2207 39.7159 47.0363 40.0343 46.8518L40.4893 47.5897C40.8532 47.3591 41.1717 47.0824 41.4901 46.7596L40.8987 46.1601C41.1717 45.8834 41.3992 45.6068 41.6266 45.284L42.3545 45.7451C42.582 45.3762 42.8095 45.0073 42.9459 44.5922L42.1725 44.2694C42.309 43.9005 42.4 43.5316 42.491 43.1627L43.3099 43.3011C43.4009 42.886 43.4009 42.4249 43.4009 42.0099L42.5365 42.056C42.5365 41.6871 42.4455 41.3182 42.3545 40.9492L43.1734 40.7187C43.0824 40.3036 42.9004 39.8886 42.7185 39.4736L41.9451 39.8425C41.7631 39.5197 41.5811 39.1969 41.3537 38.8741L42.0361 38.3207C41.7631 37.9979 41.4446 37.6751 41.1262 37.3985L40.5803 38.0441C40.3073 37.8135 39.9888 37.5829 39.6249 37.3985L40.0343 36.6606C39.6704 36.4762 39.261 36.2917 38.806 36.1995L38.5786 37.0296C38.2146 36.9373 37.8507 36.8451 37.4867 36.8451L37.5322 35.9689C37.1228 35.9228 36.6678 35.9689 36.2584 36.015L36.3949 36.8912C36.2129 36.9373 36.0309 36.9373 35.8489 36.9834C35.667 37.0296 35.485 37.0757 35.303 37.1679L35.0301 36.384C34.6206 36.5223 34.2567 36.7529 33.8927 36.9834L34.3476 37.7213C34.0292 37.9057 33.7562 38.1824 33.4833 38.413L32.8009 37.8135C32.4824 38.1363 32.2095 38.4591 31.982 38.828L32.7099 39.2891C32.4824 39.6119 32.3459 39.9347 32.2095 40.3036L31.3906 39.9808C31.2541 40.3959 31.1176 40.8109 31.0266 41.2259L31.8455 41.3643C31.8 41.7332 31.7545 42.1021 31.7545 42.5171L30.8901 42.5632C30.8901 42.9783 30.9811 43.4394 31.0721 43.8544L31.982 43.67ZM35.8944 37.214C38.624 36.4762 41.4446 38.1824 42.1725 40.9492C42.9004 43.7161 41.2172 46.5751 38.4876 47.313C35.7579 48.0508 32.9373 46.3446 32.2095 43.5777C31.4816 40.8109 33.1193 37.9518 35.8944 37.214Z" fill="url(#paint16_linear)"/>
<path d="M40.3983 17.2467C41.4446 16.97 42.0815 15.9094 41.8541 14.8488C41.5811 13.7882 40.5348 13.1426 39.4884 13.3732C38.4421 13.6498 37.8052 14.7105 38.0326 15.7711C38.3056 16.8317 39.3519 17.4773 40.3983 17.2467ZM39.5339 13.5115C40.4893 13.2809 41.4901 13.8804 41.7176 14.8488C41.9451 15.8172 41.3537 16.8317 40.3983 17.0623C39.4429 17.2928 38.4421 16.6934 38.2146 15.725C37.9871 14.7566 38.5785 13.7421 39.5339 13.5115Z" fill="url(#paint17_linear)"/>
<path d="M40.2618 16.5089C40.9442 16.3244 41.3537 15.6788 41.1717 14.9871C40.9897 14.2954 40.3528 13.8804 39.6704 14.0648C38.988 14.2493 38.5785 14.8949 38.7605 15.5866C38.897 16.2783 39.5794 16.6933 40.2618 16.5089Z" fill="url(#paint18_linear)"/>
<path d="M40.6712 18.3073C42.309 17.8922 43.3099 16.2321 42.9004 14.6181C42.491 12.958 40.8532 11.9435 39.2609 12.3585C37.6232 12.7736 36.6223 14.4337 37.0317 16.0477C37.3957 17.6617 39.0335 18.6762 40.6712 18.3073ZM39.3974 12.8658C40.7167 12.543 42.0815 13.3731 42.4 14.7104C42.7184 16.0477 41.8995 17.4311 40.5802 17.7539C39.2609 18.0767 37.8961 17.2466 37.5777 15.9093C37.2137 14.5259 38.0326 13.1886 39.3974 12.8658Z" fill="url(#paint19_linear)"/>
<path d="M41.0352 19.8291C43.4918 19.2297 45.0386 16.6934 44.4472 14.2032C43.8558 11.7131 41.3536 10.1452 38.897 10.7447C36.4403 11.3442 34.8936 13.8804 35.485 16.3706C36.0764 18.8607 38.5785 20.4286 41.0352 19.8291ZM38.9425 11.0675C41.2172 10.5141 43.5373 11.9437 44.0832 14.2494C44.6292 16.555 43.2189 18.9069 40.9442 19.4602C38.6695 20.0136 36.3493 18.5841 35.8034 16.2784C35.2575 13.9727 36.6678 11.667 38.9425 11.0675Z" fill="url(#paint20_linear)"/>
<path d="M34.3931 16.6472C34.4841 17.0622 34.6206 17.4311 34.8026 17.8001L33.9837 18.2151C34.1657 18.6301 34.4386 19.0451 34.7116 19.414L35.4395 18.8607C35.667 19.1835 35.9854 19.4602 36.2584 19.7368L35.667 20.4286C36.0309 20.7514 36.3949 20.9819 36.8043 21.2125L37.2137 20.3824C37.5777 20.5669 37.9416 20.7514 38.3056 20.8436L38.0326 21.7197C38.4876 21.8581 38.9425 21.9503 39.3974 21.9964L39.4884 21.0742C39.8979 21.1203 40.2618 21.0742 40.6712 21.028L40.8077 21.9503C41.2627 21.9042 41.7176 21.7659 42.1725 21.6275L41.8541 20.7514C42.218 20.613 42.582 20.4286 42.9459 20.2441L43.4009 21.028C43.8103 20.7975 44.1743 20.4747 44.4927 20.1519L43.8558 19.5063C44.1288 19.2296 44.4017 18.9068 44.6292 18.584L45.3571 19.0913C45.63 18.7223 45.8575 18.3073 46.0395 17.8462L45.2661 17.5234C45.4026 17.1545 45.5391 16.7394 45.63 16.3705L46.5399 16.555C46.6309 16.0938 46.6764 15.6327 46.6309 15.1716L45.721 15.2177C45.721 14.8026 45.6755 14.4337 45.5845 14.0187L46.4489 13.7881C46.3579 13.327 46.176 12.8659 45.994 12.4508L45.1751 12.8659C44.9931 12.4969 44.8112 12.128 44.5382 11.8514L45.2661 11.298C44.9931 10.9291 44.6747 10.5602 44.3107 10.2835L43.6738 10.883C43.3554 10.6063 43.0369 10.3757 42.673 10.1912L43.1279 9.3612C42.7185 9.13063 42.309 8.94617 41.8541 8.80783L41.5811 9.68399C41.2172 9.59177 40.8077 9.49954 40.3983 9.45342L40.4893 8.53114C40.0343 8.48503 39.5794 8.48503 39.079 8.57726L39.2155 9.49954C39.0335 9.54565 38.806 9.54565 38.624 9.59177C38.4421 9.63788 38.2146 9.68399 38.0326 9.77622L37.7597 8.94617C37.3047 9.08451 36.8953 9.31508 36.4858 9.54565L36.9408 10.3296C36.5768 10.5602 36.2584 10.7907 35.9854 11.0674L35.3485 10.4218C35.03 10.7446 34.7116 11.1135 34.4386 11.4824L35.1665 11.9897C34.9391 12.3125 34.7571 12.6814 34.5751 13.0503L33.7562 12.6814C33.5743 13.0964 33.4378 13.5576 33.3468 14.0187L34.2567 14.2032C34.1657 14.6182 34.1657 14.9871 34.1657 15.4021L33.2558 15.4482C33.2558 15.9094 33.3468 16.3705 33.4378 16.8317L34.3931 16.6472ZM38.6695 9.86845C41.6266 9.13063 44.5837 11.0213 45.3116 13.9726C46.0395 16.97 44.1743 19.9674 41.2627 20.7052C38.3056 21.4431 35.3485 19.5524 34.6206 16.6011C33.8927 13.6037 35.7125 10.6063 38.6695 9.86845Z" fill="url(#paint21_linear)"/>
<path d="M9.87212 19.1373C9.00774 20.0596 9.05323 21.4891 9.9631 22.3653C10.873 23.2414 12.2833 23.1953 13.1477 22.2731C14.012 21.3508 13.9665 19.9212 13.0567 19.0451C12.1468 18.1689 10.691 18.215 9.87212 19.1373ZM12.9657 22.1347C12.1923 22.9648 10.873 23.0109 10.0541 22.2269C9.23521 21.443 9.18971 20.1057 9.9631 19.2756C10.7365 18.4456 12.0558 18.3995 12.8747 19.1834C13.7391 19.9674 13.7391 21.3047 12.9657 22.1347Z" fill="url(#paint22_linear)"/>
<path d="M10.4635 19.6908C9.91759 20.2902 9.96309 21.1664 10.509 21.7198C11.1004 22.2731 11.9648 22.227 12.5107 21.6737C13.0566 21.0742 13.0112 20.198 12.4652 19.6446C11.8738 19.0913 11.0094 19.1374 10.4635 19.6908Z" fill="url(#paint23_linear)"/>
<path d="M8.96224 18.2612C7.64293 19.6907 7.68842 21.9042 9.09872 23.2415C10.509 24.5788 12.6927 24.5327 14.012 23.1032C15.3313 21.6736 15.2858 19.4602 13.8755 18.1229C12.5107 16.7855 10.2816 16.8778 8.96224 18.2612ZM13.5116 22.6881C12.4197 23.841 10.6455 23.8871 9.50816 22.7804C8.37082 21.6736 8.32533 19.8752 9.41718 18.7223C10.509 17.5695 12.2833 17.5234 13.4206 18.6301C14.5579 19.6907 14.6034 21.5353 13.5116 22.6881Z" fill="url(#paint24_linear)"/>
<path d="M7.68844 17.0161C5.68672 19.1374 5.77771 22.5498 7.87041 24.5788C9.96311 26.6079 13.3296 26.5156 15.3314 24.3944C17.3331 22.2731 17.2421 18.8607 15.1494 16.8317C13.0112 14.8027 9.69015 14.8949 7.68844 17.0161ZM15.0129 24.1177C13.1477 26.1006 10.0541 26.1928 8.09788 24.3022C6.14165 22.4115 6.05067 19.2757 7.9159 17.2928C9.78114 15.3099 12.8747 15.2177 14.8309 17.1084C16.7871 18.9991 16.8781 22.1348 15.0129 24.1177Z" fill="url(#paint25_linear)"/>
<path d="M16.0137 15.8633C15.6953 15.5405 15.2858 15.2638 14.9219 15.0332L15.4678 14.157C15.0129 13.8804 14.5125 13.6498 14.012 13.4653L13.6481 14.4798C13.1931 14.3415 12.7837 14.2032 12.3288 14.157L12.4652 13.0964C11.9193 13.0042 11.4189 13.0042 10.873 13.0503L10.964 14.1109C10.509 14.157 10.0541 14.2493 9.59915 14.3415L9.32619 13.327C8.82576 13.4653 8.32533 13.6959 7.8704 13.9265L8.37083 14.8488C7.96139 15.0793 7.59744 15.3099 7.23349 15.6327L6.55109 14.8488C6.14164 15.2177 5.7777 15.5866 5.45924 16.0016L6.27812 16.6472C6.00516 17.0161 5.7322 17.4311 5.55023 17.8462L4.59486 17.385C4.3674 17.8923 4.18542 18.3995 4.04894 18.9068L5.0498 19.1374C4.95881 19.5985 4.86782 20.0596 4.86782 20.5208L3.82147 20.4747C3.82147 21.028 3.86697 21.5353 3.95795 22.0887L4.95881 21.9042C5.0498 22.3653 5.18628 22.8265 5.36825 23.2415L4.41289 23.6565C4.59486 24.1638 4.86782 24.6249 5.18628 25.0861L6.05066 24.4866C6.32362 24.8555 6.59658 25.2244 6.96053 25.5472L6.23263 26.285C6.59658 26.6539 7.05151 26.9767 7.50645 27.2534L8.05237 26.3773C8.46182 26.6078 8.87126 26.8384 9.2807 26.9767L8.91675 27.9912C9.41718 28.1757 9.91761 28.314 10.4635 28.3602L10.6 27.2995C11.0549 27.3456 11.5099 27.3918 11.9648 27.3456L12.0558 28.4063C12.6017 28.3602 13.1022 28.2679 13.6026 28.1296L13.3296 27.1151C13.7846 26.9767 14.194 26.7923 14.6034 26.6078L15.1039 27.5301C15.5588 27.2534 16.0137 26.9767 16.4232 26.6078L15.7408 25.8239C15.9228 25.6855 16.0592 25.5011 16.2412 25.3627C16.4232 25.1783 16.5597 24.9938 16.6961 24.8094L17.515 25.455C17.8335 25.0399 18.1064 24.5788 18.3339 24.0716L17.3786 23.6104C17.5605 23.1954 17.7425 22.7343 17.8335 22.3192L18.8343 22.5498C18.9708 22.0425 19.0163 21.4892 19.0618 20.9358L18.0155 20.8897C18.0155 20.4285 17.97 19.9674 17.9245 19.5063L18.9253 19.3218C18.8343 18.7684 18.6979 18.2612 18.4704 17.7539L17.515 18.169C17.3331 17.7539 17.1056 17.3389 16.8781 16.9239L17.7425 16.3244C17.424 15.8633 17.1056 15.4482 16.6961 15.0793L16.0137 15.8633ZM16.0592 25.1322C13.6481 27.6684 9.64465 27.7607 7.1425 25.3166C4.64036 22.8726 4.54937 18.8146 6.91503 16.2783C9.32619 13.742 13.3296 13.6498 15.8318 16.0477C18.3339 18.4456 18.4249 22.5498 16.0592 25.1322Z" fill="url(#paint26_linear)"/>
<path d="M22.2918 46.9901C22.1098 45.0534 20.4266 43.5777 18.5158 43.7622C16.6051 43.9466 15.1493 45.6528 15.3313 47.5896C15.5133 49.5264 17.1965 51.0021 19.1073 50.8176C21.018 50.6793 22.4738 48.973 22.2918 46.9901ZM16.2867 47.4974C16.1502 46.0679 17.1965 44.8228 18.6068 44.7306C20.0171 44.5922 21.2455 45.6528 21.3364 47.0824C21.4729 48.5119 20.4266 49.757 19.0163 49.8492C17.606 49.9876 16.3776 48.9269 16.2867 47.4974Z" fill="url(#paint27_linear)"/>
<path d="M23.2927 46.9441C23.0652 44.4539 20.927 42.6094 18.4704 42.7938C16.0137 43.0244 14.194 45.1918 14.3759 47.6819C14.6034 50.1721 16.7416 52.0166 19.1983 51.8322C21.6549 51.6477 23.4747 49.4343 23.2927 46.9441ZM14.5579 47.6819C14.3759 45.284 16.1047 43.2089 18.4704 43.0244C20.836 42.84 22.8832 44.5923 23.0652 46.9902C23.2472 49.3881 21.5184 51.4633 19.1528 51.6477C16.8326 51.8322 14.7399 50.0337 14.5579 47.6819Z" fill="url(#paint28_linear)"/>
<path d="M18.1519 53.7228C18.5614 53.7689 18.9253 53.7689 19.3348 53.7228L19.2893 53.1694C19.9717 53.1233 20.6086 52.9388 21.2 52.6622L21.4275 53.1694C21.7914 52.985 22.1099 52.8005 22.4738 52.5699L22.1554 52.1088C22.7013 51.7399 23.1562 51.2326 23.5657 50.7254L24.0206 51.0482C24.2481 50.7254 24.4755 50.3565 24.612 50.0337L24.1116 49.8031C24.3845 49.2036 24.5665 48.558 24.612 47.9124L25.1579 47.9585C25.2034 47.5896 25.2034 47.1746 25.1579 46.7596L24.612 46.8057C24.5665 46.114 24.3845 45.4684 24.1116 44.8689L24.612 44.6383C24.43 44.2694 24.2481 43.9466 24.0206 43.5777L23.5657 43.9005C23.2017 43.3471 22.7013 42.886 22.2009 42.471L22.5193 42.0098C22.2009 41.7793 21.8369 41.5487 21.5185 41.4103L21.291 41.9637C20.6996 41.687 20.0627 41.5026 19.4257 41.4103L19.4712 40.857C19.0618 40.8109 18.6979 40.8109 18.2884 40.857L18.3339 41.4103C17.6515 41.4565 17.0146 41.6409 16.4232 41.9176L16.1957 41.4103C15.8318 41.5948 15.5133 41.7793 15.1494 42.0098L15.4678 42.471C14.9219 42.8399 14.467 43.301 14.0575 43.8544L13.6026 43.5316C13.3751 43.8544 13.1476 44.2233 13.0112 44.5461L13.5116 44.7767C13.2386 45.3761 13.0567 46.0217 12.9657 46.6673L12.4197 46.6212C12.3742 47.0363 12.3742 47.4052 12.4197 47.8202L12.9657 47.7741C13.0112 48.4658 13.1931 49.1114 13.4661 49.7109L12.9657 49.9414C13.1476 50.3103 13.3296 50.6793 13.5571 51.0021L14.012 50.6793C14.376 51.2326 14.8309 51.6938 15.3768 52.1088L15.0584 52.5699C15.3768 52.8005 15.7408 53.0311 16.0592 53.1694L16.2867 52.6622C16.8781 52.9388 17.515 53.1233 18.1519 53.2155V53.7228ZM13.83 47.728C13.6026 44.9611 15.6498 42.5171 18.3794 42.2865C21.109 42.0559 23.5202 44.1311 23.7476 46.8979C23.9751 49.6647 21.9279 52.1088 19.1983 52.3394C16.4687 52.5699 14.103 50.4948 13.83 47.728Z" fill="url(#paint29_linear)"/>
<path d="M29.5254 52.2932C28.1605 52.6622 27.3872 54.0917 27.7511 55.4751C28.115 56.8585 29.5254 57.6425 30.8902 57.2735C32.255 56.9046 33.0284 55.4751 32.6644 54.0917C32.255 52.7083 30.8447 51.8782 29.5254 52.2932ZM30.7082 56.5357C29.7528 56.8124 28.7065 56.2129 28.4335 55.2445C28.1605 54.2761 28.752 53.2155 29.7073 52.9388C30.6627 52.6622 31.709 53.2616 31.982 54.23C32.255 55.2445 31.6636 56.259 30.7082 56.5357Z" fill="url(#paint30_linear)"/>
<path d="M29.2524 51.2787C27.3417 51.832 26.2498 53.815 26.7502 55.7517C27.2962 57.6885 29.2524 58.7953 31.1631 58.288C33.0738 57.7346 34.1657 55.7517 33.6653 53.8149C33.1193 51.832 31.1176 50.7253 29.2524 51.2787ZM31.1176 58.1036C29.2979 58.6108 27.4326 57.5502 26.8867 55.7056C26.3863 53.8611 27.4326 51.9704 29.2524 51.417C31.0721 50.9098 32.9374 51.9704 33.4833 53.8149C33.9837 55.6595 32.9374 57.5963 31.1176 58.1036Z" fill="url(#paint31_linear)"/>
<path d="M37.0318 54.1378C36.9863 53.7228 36.8953 53.3078 36.8043 52.8466L36.2129 53.0311C36.0309 52.3394 35.7125 51.6938 35.303 51.0943L35.8035 50.7254C35.576 50.3565 35.303 50.0337 34.9846 49.757L34.5751 50.2181C34.0747 49.7109 33.4833 49.2959 32.8464 49.0192L33.1193 48.4658C32.7554 48.2814 32.346 48.143 31.9365 48.0508L31.8 48.6503C31.1176 48.4658 30.4352 48.4197 29.7073 48.4658L29.6618 47.8663C29.2524 47.9124 28.8429 48.0047 28.4335 48.0969L28.6155 48.6964C27.9331 48.8808 27.2962 49.2036 26.7048 49.6187L26.3408 49.1114C25.9769 49.342 25.6584 49.6187 25.3854 49.9415L25.8404 50.3565C25.3399 50.8637 24.9305 51.4632 24.6575 52.1088L24.1116 51.8321C23.9296 52.201 23.7932 52.6161 23.7022 53.0311L24.2936 53.1694C24.1116 53.8612 24.0661 54.5529 24.1116 55.2907L23.5202 55.3368C23.5657 55.7518 23.6567 56.1668 23.7477 56.5819L24.3391 56.3974C24.5211 57.0891 24.8395 57.7347 25.249 58.3342L24.7485 58.7031C24.976 59.072 25.249 59.3948 25.5674 59.6715L25.9769 59.2104C26.4773 59.7176 27.0687 60.1327 27.7056 60.4093L27.4326 60.9627C27.7966 61.1472 28.206 61.2855 28.6155 61.3777L28.752 60.7783C29.4344 60.9627 30.1168 61.0088 30.8447 60.9627L30.8902 61.5622C31.2996 61.5161 31.709 61.4238 32.1185 61.3316L31.9365 60.7321C32.6189 60.5477 33.2558 60.2249 33.8472 59.8099L34.2112 60.3171C34.5751 60.0865 34.8936 59.8099 35.1666 59.4871L34.7116 59.072C35.212 58.5648 35.6215 57.9653 35.8945 57.3197L36.4404 57.5964C36.6223 57.2275 36.7588 56.8124 36.8498 56.3974L36.2584 56.2591C36.4404 55.5674 36.4859 54.8757 36.4404 54.1378H37.0318ZM31.6635 59.9943C28.8429 60.8244 25.8404 59.1181 25.067 56.2591C24.2481 53.4 25.9314 50.3565 28.752 49.5725C31.5726 48.7425 34.5751 50.4487 35.3485 53.3078C36.1674 56.1668 34.4842 59.1643 31.6635 59.9943Z" fill="url(#paint32_linear)"/>
<path d="M9.0532 34.5393C8.27981 35.7383 8.64376 37.3523 9.82659 38.0901C11.0094 38.874 12.6017 38.5051 13.3296 37.3062C14.103 36.1072 13.739 34.4932 12.5562 33.7554C11.3734 33.0176 9.82659 33.3404 9.0532 34.5393ZM12.7382 36.9373C12.1923 37.8134 11.0549 38.044 10.1905 37.4906C9.32616 36.9373 9.09869 35.7844 9.64462 34.9082C10.1905 34.0321 11.3279 33.8015 12.1923 34.3549C13.0566 34.9082 13.2841 36.0611 12.7382 36.9373Z" fill="url(#paint33_linear)"/>
<path d="M8.14332 33.986C7.09697 35.6922 7.55191 37.9518 9.23517 39.0124C10.9184 40.073 13.1476 39.6119 14.194 37.9057C15.2403 36.1994 14.7854 33.9399 13.1021 32.8792C11.4644 31.7725 9.23517 32.2798 8.14332 33.986ZM14.103 37.8134C13.1021 39.4274 10.9639 39.8886 9.37165 38.8741C7.73388 37.8134 7.27895 35.6922 8.3253 34.0782C9.32616 32.4642 11.4644 32.0031 13.0566 33.0176C14.6489 34.0321 15.1038 36.1994 14.103 37.8134Z" fill="url(#paint34_linear)"/>
<path d="M15.9227 30.8503C15.6043 30.5736 15.2858 30.2969 14.9219 30.0663L14.5579 30.5736C13.921 30.1586 13.2841 29.8819 12.6017 29.7435L12.7382 29.1441C12.3287 29.0518 11.9193 29.0057 11.4644 28.9596L11.4189 29.5591C10.691 29.513 10.0086 29.6052 9.32617 29.8358L9.1442 29.2363C8.73476 29.3746 8.32532 29.513 7.96137 29.7435L8.23433 30.2969C7.59742 30.6197 7.0515 31.0347 6.55107 31.5881L6.09613 31.1731C5.82317 31.4959 5.55021 31.8187 5.32274 32.1876L5.82317 32.5104C5.41373 33.156 5.14077 33.8016 5.00429 34.4933L4.41287 34.3549C4.32188 34.77 4.27639 35.185 4.2309 35.6461L4.82231 35.6922C4.77682 36.4301 4.86781 37.1218 5.09527 37.8135L4.50386 37.9979C4.64034 38.413 4.77682 38.828 5.00429 39.1969L5.55021 38.9202C5.86866 39.5658 6.27811 40.1192 6.82403 40.6264L6.41459 41.0876C6.73304 41.3643 7.0515 41.6409 7.41544 41.8715L7.7339 41.3643C8.37081 41.7793 9.00772 42.056 9.69012 42.1943L9.55364 42.7938C9.96308 42.886 10.3725 42.9321 10.8275 42.9783L10.873 42.3788C11.6009 42.4249 12.2833 42.3327 12.9657 42.1021L13.1476 42.7016C13.5571 42.5632 13.9665 42.4249 14.3305 42.1943L14.103 41.5948C14.7399 41.272 15.2858 40.857 15.7863 40.3036L16.2412 40.7187C16.5142 40.3959 16.7871 40.0731 17.0146 39.7042L16.5142 39.3814C16.9236 38.7358 17.1966 38.0902 17.333 37.3985L17.9245 37.5368C18.0154 37.1218 18.0609 36.7067 18.1064 36.2456L17.515 36.1995C17.5605 35.4617 17.4695 34.77 17.2421 34.0783L17.8335 33.8938C17.697 33.4788 17.5605 33.0637 17.333 32.6948L16.7871 32.9715C16.4687 32.3259 16.0592 31.7726 15.5133 31.2653L15.9227 30.8503ZM15.7408 38.8741C14.1485 41.4104 10.8275 42.1482 8.32532 40.5342C5.82317 38.9202 5.09527 35.5539 6.68755 33.0176C8.27982 30.4814 11.6009 29.7435 14.103 31.3575C16.6051 32.9715 17.333 36.3378 15.7408 38.8741Z" fill="url(#paint35_linear)"/>
<path d="M43.7648 31.6803C44.9457 31.6803 45.903 30.7099 45.903 29.5129C45.903 28.3159 44.9457 27.3456 43.7648 27.3456C42.5839 27.3456 41.6266 28.3159 41.6266 29.5129C41.6266 30.7099 42.5839 31.6803 43.7648 31.6803Z" fill="url(#paint36_linear)"/>
<path d="M39.0335 24.1176C38.8515 24.3021 38.6695 24.4865 38.4875 24.671L39.2609 25.4088C38.9425 25.7777 38.6695 26.1466 38.4421 26.5156L37.5322 26.0083C37.3957 26.2389 37.3047 26.4694 37.2137 26.7L38.1691 27.115C37.9871 27.5301 37.8506 27.9912 37.7597 28.4523L36.7133 28.2679C36.6678 28.4985 36.6223 28.7751 36.6223 29.0057L37.6687 29.0979C37.6232 29.5591 37.6687 30.0202 37.7142 30.4814L36.6678 30.6197C36.7133 30.8503 36.7588 31.127 36.8043 31.3575L37.8051 31.0808C37.8961 31.542 38.0781 31.957 38.3056 32.372L37.3957 32.8793C37.5322 33.1099 37.6232 33.3404 37.7597 33.5249L38.624 32.9254C38.8515 33.2943 39.17 33.6632 39.4884 33.986L38.7605 34.77C38.9425 34.9544 39.1245 35.0928 39.3519 35.2772L39.9888 34.4472C40.3528 34.7238 40.7622 34.9544 41.1717 35.185L40.7167 36.1534C40.9442 36.2456 41.1717 36.3378 41.3991 36.4301L41.7176 35.4156C42.1725 35.5539 42.582 35.6461 43.0369 35.6922L42.9459 36.7529C43.1734 36.799 43.4463 36.799 43.7193 36.799V35.7383C44.1742 35.7383 44.6292 35.6922 45.0841 35.5539L45.3116 36.5684C45.5391 36.5223 45.812 36.4301 46.0395 36.3378L45.6755 35.3233C46.085 35.185 46.4944 34.9544 46.9039 34.7238L47.4498 35.6461C47.6772 35.5078 47.8592 35.3694 48.0867 35.185L47.4498 34.3549C47.7227 34.1705 47.9502 33.9399 48.1777 33.6632C48.2687 33.571 48.3597 33.4788 48.4051 33.3865L49.224 34.0321C49.3605 33.8477 49.5425 33.6171 49.679 33.4327L48.8146 32.8332C49.0875 32.4181 49.2695 32.0031 49.406 31.5881L50.4069 31.957C50.4978 31.7264 50.5888 31.4497 50.6343 31.2192L49.6335 30.9425C49.7245 30.4814 49.8154 30.0202 49.8154 29.5591H50.8618C50.8618 29.2824 50.8618 29.0518 50.8163 28.7751L49.77 28.8674C49.7245 28.4062 49.6335 27.9451 49.497 27.5301L50.4978 27.2073C50.4069 26.9767 50.3159 26.7 50.2249 26.4694L49.2695 26.8845C49.0875 26.4694 48.8601 26.0544 48.5871 25.6855L49.406 25.0399C49.2695 24.8555 49.0875 24.6249 48.9056 24.4404L48.1322 25.1783C48.0412 25.0399 47.9047 24.9477 47.7682 24.8093C47.5408 24.6249 47.3133 24.4404 47.0858 24.256L47.7682 23.5181C47.5408 23.3798 47.3588 23.2415 47.1313 23.1031L46.6309 24.0254C46.2215 23.7948 45.812 23.6565 45.3571 23.5181L45.63 22.5036C45.4026 22.4575 45.1296 22.3653 44.9021 22.3192L44.7202 23.3798C44.2652 23.2876 43.8103 23.2876 43.3554 23.3337L43.3099 22.2731C43.0369 22.2731 42.8094 22.3192 42.5365 22.3653L42.7185 23.4259C42.2635 23.5181 41.8086 23.6104 41.3991 23.7948L40.9897 22.8264C40.7622 22.9187 40.5348 23.057 40.3073 23.1492L40.8077 24.0715C40.3983 24.3021 40.0343 24.5327 39.6704 24.8555L39.0335 24.1176ZM47.2678 25.5933C49.406 27.5762 49.5425 30.8964 47.5863 33.0637C45.63 35.2311 42.3545 35.3694 40.2163 33.3865C38.0781 31.4036 37.9416 28.0834 39.8978 25.9161C41.8541 23.7948 45.1751 23.6565 47.2678 25.5933Z" fill="url(#paint37_linear)"/>
<path d="M28.024 26.0083C26.6592 25.501 25.1579 26.1466 24.612 27.53C24.1116 28.9135 24.7485 30.4352 26.1133 30.9886C27.4781 31.4958 28.9794 30.8503 29.5253 29.4668C30.0712 28.0834 29.3888 26.5155 28.024 26.0083Z" fill="url(#paint38_linear)"/>
<path d="M34.9846 32.5565C35.121 32.2798 35.2575 32.0031 35.3485 31.6803L34.1202 31.2192C34.3476 30.6658 34.4841 30.1125 34.5296 29.5591L35.8034 29.7436C35.8489 29.4208 35.8944 29.098 35.8944 28.7752L34.5751 28.729C34.5751 28.1296 34.5296 27.5762 34.4386 27.0228L35.7124 26.7923C35.667 26.4695 35.576 26.1928 35.485 25.87L34.3021 26.285C34.1202 25.7316 33.8927 25.2244 33.6197 24.7171L34.7571 24.0715C34.6206 23.7949 34.4386 23.5182 34.2567 23.2876L33.2103 24.0254C32.8918 23.5643 32.4824 23.1493 32.073 22.7342L32.9373 21.7658C32.7099 21.5353 32.4369 21.3508 32.2094 21.1664L31.4815 22.227C31.0266 21.9042 30.5262 21.6275 29.9803 21.3969L30.4807 20.198C30.2077 20.0596 29.8893 19.9674 29.6163 19.8752L29.2524 21.1202C28.7064 20.9358 28.1605 20.8436 27.5691 20.8436L27.6601 19.5524C27.3416 19.5524 27.0232 19.5524 26.7047 19.5524L26.7502 20.8897C26.2043 20.9358 25.6129 21.028 25.067 21.1664L24.703 19.8752C24.3846 19.9674 24.1116 20.0596 23.8386 20.198L24.3391 21.443C23.7931 21.6736 23.2927 21.9042 22.8378 22.227L22.1099 21.1202C21.8369 21.3047 21.6094 21.4892 21.382 21.7197L22.2464 22.7342C21.8369 23.1031 21.4275 23.5182 21.109 23.9793L20.0627 23.1954C19.8807 23.4721 19.6987 23.7026 19.5622 23.9793L20.6996 24.6249C20.4721 24.9938 20.2901 25.3627 20.1536 25.7316C20.1082 25.87 20.0627 26.0083 20.0172 26.1467L18.6524 25.7778C18.5614 26.1006 18.4704 26.3772 18.4249 26.7L19.6987 26.9767C19.6077 27.5301 19.5622 28.1296 19.5622 28.6829L18.2429 28.729C18.2429 29.0518 18.2884 29.3746 18.3339 29.6974L19.6077 29.513C19.6987 30.0664 19.8352 30.6197 20.0172 31.1731L18.7888 31.6342C18.8798 31.9109 19.0163 32.2337 19.1528 32.5104L20.3356 31.9109C20.5631 32.4182 20.8815 32.9254 21.2455 33.3404L20.2446 34.1705C20.4266 34.4011 20.6541 34.6316 20.8815 34.8622L21.7914 33.9399C22.2009 34.355 22.6103 34.6778 23.1107 35.0006L22.4283 36.1073C22.7013 36.2917 22.9743 36.4301 23.2472 36.5684L23.7931 35.3695C23.9751 35.4617 24.1571 35.5539 24.3391 35.6C24.6575 35.7384 25.0215 35.8306 25.3854 35.9228L25.1124 37.214C25.4309 37.3062 25.7494 37.3524 26.0223 37.3985L26.1588 36.1073C26.7047 36.1534 27.2961 36.1534 27.8421 36.1073L27.9785 37.3985C28.297 37.3524 28.6155 37.3063 28.8884 37.2601L28.6609 35.9689C29.2069 35.8306 29.7528 35.6461 30.2532 35.4156L30.7991 36.6145C31.0721 36.4762 31.3451 36.3379 31.618 36.1534L30.9811 35.0467C31.4815 34.77 31.891 34.4011 32.3004 33.986L33.2103 34.9544C33.4378 34.7239 33.6652 34.4933 33.8472 34.2627L32.8464 33.4327C33.2103 33.0177 33.5288 32.5104 33.8017 32.0031L34.9846 32.5565ZM24.794 34.5855C21.473 33.2943 19.7897 29.513 21.0635 26.1467C22.3373 22.7803 26.0678 21.0741 29.3888 22.3653C32.7099 23.6565 34.3931 27.4379 33.1193 30.8042C31.8455 34.2166 28.115 35.8767 24.794 34.5855Z" fill="url(#paint39_linear)"/>
<path d="M30.7536 8.62328C31.4571 8.62328 32.0274 8.04519 32.0274 7.33209C32.0274 6.61898 31.4571 6.04089 30.7536 6.04089C30.0501 6.04089 29.4798 6.61898 29.4798 7.33209C29.4798 8.04519 30.0501 8.62328 30.7536 8.62328Z" fill="url(#paint40_linear)"/>
<path d="M26.4772 6.96324C26.4772 7.10158 26.4772 7.28604 26.4772 7.42438H27.1141C27.1141 7.70106 27.1596 7.97775 27.2051 8.25443L26.5682 8.39277C26.6137 8.53112 26.6592 8.66946 26.7047 8.85391L27.2961 8.62334C27.3871 8.90003 27.5236 9.1306 27.6601 9.36117L27.1596 9.68396C27.2506 9.82231 27.3416 9.96065 27.4326 10.0529L27.933 9.63785C28.115 9.86842 28.297 10.0529 28.5244 10.2373L28.115 10.7446C28.2515 10.8368 28.3425 10.929 28.479 11.0213L28.7974 10.4679C29.0249 10.6062 29.2978 10.7446 29.5253 10.8368L29.2978 11.4363C29.4343 11.4824 29.5708 11.5285 29.7528 11.5746L29.8893 10.929C30.1622 10.9752 30.4352 11.0213 30.7081 11.0213V11.6669C30.8446 11.6669 31.0266 11.6669 31.1631 11.6669L31.1176 11.0213C31.3905 10.9752 31.6635 10.929 31.9365 10.8368L32.1184 11.4363C32.2549 11.3902 32.3914 11.3441 32.5279 11.2518L32.3004 10.6985C32.5734 10.5601 32.8008 10.4218 32.9828 10.2834L33.3468 10.7907C33.4832 10.6985 33.5742 10.6062 33.7107 10.4679L33.2558 10.0068C33.4378 9.82231 33.6197 9.59174 33.8017 9.36117L34.3476 9.73008C34.4386 9.59174 34.5296 9.4534 34.5751 9.31505L34.0292 9.03837C34.1657 8.8078 34.2566 8.53112 34.3021 8.25443L34.8935 8.39277C34.939 8.25443 34.9845 8.06998 34.9845 7.93163L34.3476 7.83941C34.3931 7.65495 34.3931 7.42438 34.3931 7.23992C34.3931 7.1477 34.3931 7.10158 34.3931 7.00935L35.03 6.96324C35.03 6.8249 34.9845 6.64044 34.9845 6.5021L34.3476 6.59433C34.3021 6.31764 34.2111 6.04096 34.1202 5.81039L34.7116 5.53371C34.6661 5.39536 34.5751 5.25702 34.5296 5.11868L33.9837 5.44148C33.8472 5.21091 33.6652 4.98034 33.4832 4.74977L33.9382 4.33474C33.8472 4.24251 33.7107 4.10417 33.6197 4.01194L33.2103 4.47308C33.0283 4.28863 32.8008 4.10417 32.5279 4.01194L32.8463 3.45858C32.7099 3.36635 32.5734 3.32023 32.4369 3.27412L32.2094 3.8736C31.9365 3.78137 31.6635 3.73526 31.3905 3.68915L31.4815 3.04355C31.345 2.99744 31.1631 2.99744 31.0266 2.99744L30.9811 3.64303C30.8901 3.64303 30.7991 3.64303 30.6626 3.64303C30.4807 3.64303 30.2987 3.64303 30.1622 3.68915L30.0712 3.04355C29.9347 3.08966 29.7528 3.08966 29.6163 3.13578L29.7983 3.73526C29.5253 3.82749 29.2523 3.91972 29.0249 4.05806L28.7064 3.50469C28.5699 3.59692 28.4335 3.64303 28.297 3.73526L28.6609 4.28863C28.4335 4.42697 28.206 4.61143 28.024 4.842L27.5691 4.38086C27.4781 4.47308 27.3871 4.61143 27.2961 4.74977L27.7965 5.11868C27.6146 5.34925 27.4781 5.57982 27.3871 5.8565L26.8412 5.53371C26.7957 5.67205 26.7047 5.81039 26.6592 5.94873L27.2506 6.13319C27.1596 6.40987 27.1141 6.68656 27.0687 6.96324H26.4772ZM30.7081 4.15029C32.4369 4.10417 33.8927 5.53371 33.8927 7.28604C33.9382 9.03837 32.5279 10.514 30.7991 10.514C29.0704 10.5601 27.6146 9.1306 27.6146 7.37827C27.5691 5.62593 28.9794 4.1964 30.7081 4.15029Z" fill="url(#paint41_linear)"/>
<path d="M35.7579 71.4305H17.5605C16.5141 71.4305 15.6953 70.6005 15.6953 69.5398C15.6953 68.4792 16.5141 67.6492 17.5605 67.6492H35.8034C36.8498 67.6492 37.6686 68.4792 37.6686 69.5398C37.6232 70.6005 36.8043 71.4305 35.7579 71.4305Z" fill="url(#paint42_linear)"/>
<path d="M35.7579 76.9182H17.5605C16.5141 76.9182 15.6953 76.0881 15.6953 75.0275C15.6953 73.9669 16.5141 73.1368 17.5605 73.1368H35.8034C36.8498 73.1368 37.6686 73.9669 37.6686 75.0275C37.6232 76.0881 36.8043 76.9182 35.7579 76.9182Z" fill="url(#paint43_linear)"/>
<path d="M35.7579 82.3596H17.5605C16.5141 82.3596 15.6953 81.5295 15.6953 80.4689C15.6953 79.4083 16.5141 78.5782 17.5605 78.5782H35.8034C36.8498 78.5782 37.6686 79.4083 37.6686 80.4689C37.6232 81.5295 36.8043 82.3596 35.7579 82.3596Z" fill="url(#paint44_linear)"/>
<path d="M21.5184 83.8813C21.5639 86.7404 23.8841 89 26.7047 89C29.5253 89 31.8 86.6943 31.891 83.8813H21.5184Z" fill="url(#paint45_linear)"/>
<path d="M26.5227 1.38342C40.3528 1.38342 51.6352 12.8197 51.6352 26.8383C51.6352 33.156 49.3605 39.1969 45.1751 43.8544C40.0343 49.6648 36.7588 56.7202 35.7125 64.4212H17.2876C16.2412 56.7202 12.9657 49.6648 7.82489 43.8544C3.63949 39.1969 1.36481 33.1098 1.36481 26.7922C1.4103 13.0964 12.3743 1.70622 25.8858 1.42953C26.1133 1.38342 26.2953 1.38342 26.5227 1.38342ZM26.5227 0C26.2953 0 26.1133 0 25.8858 0C11.6009 0.368912 0.0454936 12.3124 0 26.7922C0 33.7093 2.54764 40.0731 6.82404 44.8228C12.0558 50.6793 15.2858 58.0575 16.1047 65.8508H36.9408C37.7597 58.0575 40.9897 50.6793 46.2215 44.8228C50.4524 40.0731 53.0455 33.7554 53.0455 26.8383C53 12.0358 41.1262 0 26.5227 0Z" fill="url(#paint46_linear)"/>
<defs>
<linearGradient id="paint0_linear" x1="32.7243" y1="47.137" x2="16.4426" y2="62.8785" gradientUnits="userSpaceOnUse">
<stop stop-color="#FFA500"/>
<stop offset="1" stop-color="#D6F7EE"/>
</linearGradient>
<linearGradient id="paint1_linear" x1="41.8054" y1="37.7416" x2="13.3123" y2="65.2892" gradientUnits="userSpaceOnUse">
<stop stop-color="#FFA500"/>
<stop offset="1" stop-color="#D6F7EE"/>
</linearGradient>
<linearGradient id="paint2_linear" x1="56.2053" y1="23.6049" x2="9.39051" y2="69.7896" gradientUnits="userSpaceOnUse">
<stop stop-color="#FFA500"/>
<stop offset="1" stop-color="#D6F7EE"/>
</linearGradient>
<linearGradient id="paint3_linear" x1="38.6255" y1="-10.6828" x2="13.0857" y2="14.0095" gradientUnits="userSpaceOnUse">
<stop stop-color="#FFA500"/>
<stop offset="1" stop-color="#D6F7EE"/>
</linearGradient>
<linearGradient id="paint4_linear" x1="53.0871" y1="-25.6439" x2="8.1494" y2="17.8025" gradientUnits="userSpaceOnUse">
<stop stop-color="#FFA500"/>
<stop offset="1" stop-color="#D6F7EE"/>
</linearGradient>
<linearGradient id="paint5_linear" x1="74.3584" y1="-48.4565" x2="-0.0886568" y2="22.5973" gradientUnits="userSpaceOnUse">
<stop stop-color="#FFA500"/>
<stop offset="1" stop-color="#D6F7EE"/>
</linearGradient>
<linearGradient id="paint6_linear" x1="40.6907" y1="1.50339" x2="22.8478" y2="18.7541" gradientUnits="userSpaceOnUse">
<stop stop-color="#FFA500"/>
<stop offset="1" stop-color="#D6F7EE"/>
</linearGradient>
<linearGradient id="paint7_linear" x1="51.1994" y1="-9.30297" x2="19.3461" y2="21.5221" gradientUnits="userSpaceOnUse">
<stop stop-color="#FFA500"/>
<stop offset="1" stop-color="#D6F7EE"/>
</linearGradient>
<linearGradient id="paint8_linear" x1="67.0409" y1="-26.2039" x2="13.2711" y2="25.1664" gradientUnits="userSpaceOnUse">
<stop stop-color="#FFA500"/>
<stop offset="1" stop-color="#D6F7EE"/>
</linearGradient>
<linearGradient id="paint9_linear" x1="37.7268" y1="29.8864" x2="23.0836" y2="44.0649" gradientUnits="userSpaceOnUse">
<stop stop-color="#FFA500"/>
<stop offset="1" stop-color="#D6F7EE"/>
</linearGradient>
<linearGradient id="paint10_linear" x1="46.0146" y1="21.2972" x2="20.2057" y2="46.2502" gradientUnits="userSpaceOnUse">
<stop stop-color="#FFA500"/>
<stop offset="1" stop-color="#D6F7EE"/>
</linearGradient>
<linearGradient id="paint11_linear" x1="59.0701" y1="8.0594" x2="16.088" y2="49.9229" gradientUnits="userSpaceOnUse">
<stop stop-color="#FFA500"/>
<stop offset="1" stop-color="#D6F7EE"/>
</linearGradient>
<linearGradient id="paint12_linear" x1="56.1865" y1="22.6115" x2="30.6767" y2="47.2748" gradientUnits="userSpaceOnUse">
<stop stop-color="#FFA500"/>
<stop offset="1" stop-color="#D6F7EE"/>
</linearGradient>
<linearGradient id="paint13_linear" x1="49.2625" y1="29.728" x2="33.0095" y2="45.4416" gradientUnits="userSpaceOnUse">
<stop stop-color="#FFA500"/>
<stop offset="1" stop-color="#D6F7EE"/>
</linearGradient>
<linearGradient id="paint14_linear" x1="66.7413" y1="11.6193" x2="27.003" y2="49.9374" gradientUnits="userSpaceOnUse">
<stop stop-color="#FFA500"/>
<stop offset="1" stop-color="#D6F7EE"/>
</linearGradient>
<linearGradient id="paint15_linear" x1="81.7982" y1="-3.88479" x2="21.9344" y2="53.9925" gradientUnits="userSpaceOnUse">
<stop stop-color="#FFA500"/>
<stop offset="1" stop-color="#D6F7EE"/>
</linearGradient>
<linearGradient id="paint16_linear" x1="102.406" y1="-24.8713" x2="15.3588" y2="59.7755" gradientUnits="userSpaceOnUse">
<stop stop-color="#FFA500"/>
<stop offset="1" stop-color="#D6F7EE"/>
</linearGradient>
<linearGradient id="paint17_linear" x1="60.3573" y1="-5.80904" x2="32.9753" y2="20.6643" gradientUnits="userSpaceOnUse">
<stop stop-color="#FFA500"/>
<stop offset="1" stop-color="#D6F7EE"/>
</linearGradient>
<linearGradient id="paint18_linear" x1="52.9946" y1="1.80833" x2="35.5189" y2="18.7041" gradientUnits="userSpaceOnUse">
<stop stop-color="#FFA500"/>
<stop offset="1" stop-color="#D6F7EE"/>
</linearGradient>
<linearGradient id="paint19_linear" x1="71.5357" y1="-17.2442" x2="29.3049" y2="23.6998" gradientUnits="userSpaceOnUse">
<stop stop-color="#FFA500"/>
<stop offset="1" stop-color="#D6F7EE"/>
</linearGradient>
<linearGradient id="paint20_linear" x1="88.0324" y1="-34.4395" x2="23.5592" y2="27.8941" gradientUnits="userSpaceOnUse">
<stop stop-color="#FFA500"/>
<stop offset="1" stop-color="#D6F7EE"/>
</linearGradient>
<linearGradient id="paint21_linear" x1="109.815" y1="-56.6008" x2="16.6409" y2="34.0154" gradientUnits="userSpaceOnUse">
<stop stop-color="#FFA500"/>
<stop offset="1" stop-color="#D6F7EE"/>
</linearGradient>
<linearGradient id="paint22_linear" x1="35.0733" y1="-3.67207" x2="3.46677" y2="26.8856" gradientUnits="userSpaceOnUse">
<stop stop-color="#FFA500"/>
<stop offset="1" stop-color="#D6F7EE"/>
</linearGradient>
<linearGradient id="paint23_linear" x1="26.2078" y1="5.45309" x2="6.46239" y2="24.5433" gradientUnits="userSpaceOnUse">
<stop stop-color="#FFA500"/>
<stop offset="1" stop-color="#D6F7EE"/>
</linearGradient>
<linearGradient id="paint24_linear" x1="47.8076" y1="-16.796" x2="-0.7995" y2="30.309" gradientUnits="userSpaceOnUse">
<stop stop-color="#FFA500"/>
<stop offset="1" stop-color="#D6F7EE"/>
</linearGradient>
<linearGradient id="paint25_linear" x1="66.4653" y1="-36.1481" x2="-7.24849" y2="35.1194" gradientUnits="userSpaceOnUse">
<stop stop-color="#FFA500"/>
<stop offset="1" stop-color="#D6F7EE"/>
</linearGradient>
<linearGradient id="paint26_linear" x1="90.941" y1="-61.2021" x2="-15.2805" y2="41.9078" gradientUnits="userSpaceOnUse">
<stop stop-color="#FFA500"/>
<stop offset="1" stop-color="#D6F7EE"/>
</linearGradient>
<linearGradient id="paint27_linear" x1="55.2806" y1="9.56133" x2="6.36328" y2="56.8553" gradientUnits="userSpaceOnUse">
<stop stop-color="#FFA500"/>
<stop offset="1" stop-color="#D6F7EE"/>
</linearGradient>
<linearGradient id="paint28_linear" x1="65.4782" y1="-0.941805" x2="2.91295" y2="59.5471" gradientUnits="userSpaceOnUse">
<stop stop-color="#FFA500"/>
<stop offset="1" stop-color="#D6F7EE"/>
</linearGradient>
<linearGradient id="paint29_linear" x1="85.592" y1="-21.575" x2="-3.70554" y2="65.0669" gradientUnits="userSpaceOnUse">
<stop stop-color="#FFA500"/>
<stop offset="1" stop-color="#D6F7EE"/>
</linearGradient>
<linearGradient id="paint30_linear" x1="56.7735" y1="27.2056" x2="21.0317" y2="61.6529" gradientUnits="userSpaceOnUse">
<stop stop-color="#FFA500"/>
<stop offset="1" stop-color="#D6F7EE"/>
</linearGradient>
<linearGradient id="paint31_linear" x1="67.543" y1="16.0456" x2="17.3346" y2="64.4584" gradientUnits="userSpaceOnUse">
<stop stop-color="#FFA500"/>
<stop offset="1" stop-color="#D6F7EE"/>
</linearGradient>
<linearGradient id="paint32_linear" x1="100.757" y1="-18.2014" x2="6.21798" y2="73.2008" gradientUnits="userSpaceOnUse">
<stop stop-color="#FFA500"/>
<stop offset="1" stop-color="#D6F7EE"/>
</linearGradient>
<linearGradient id="paint33_linear" x1="37.7545" y1="8.56104" x2="2.26078" y2="43.0131" gradientUnits="userSpaceOnUse">
<stop stop-color="#FFA500"/>
<stop offset="1" stop-color="#D6F7EE"/>
</linearGradient>
<linearGradient id="paint34_linear" x1="48.564" y1="-2.85981" x2="-1.73163" y2="45.6306" gradientUnits="userSpaceOnUse">
<stop stop-color="#FFA500"/>
<stop offset="1" stop-color="#D6F7EE"/>
</linearGradient>
<linearGradient id="paint35_linear" x1="83.5486" y1="-38.6654" x2="-13.2293" y2="55.2087" gradientUnits="userSpaceOnUse">
<stop stop-color="#FFA500"/>
<stop offset="1" stop-color="#D6F7EE"/>
</linearGradient>
<linearGradient id="paint36_linear" x1="66.0721" y1="6.43523" x2="36.1505" y2="35.3639" gradientUnits="userSpaceOnUse">
<stop stop-color="#FFA500"/>
<stop offset="1" stop-color="#D6F7EE"/>
</linearGradient>
<linearGradient id="paint37_linear" x1="118.021" y1="-47.7988" x2="17.775" y2="48.5048" gradientUnits="userSpaceOnUse">
<stop stop-color="#FFA500"/>
<stop offset="1" stop-color="#D6F7EE"/>
</linearGradient>
<linearGradient id="paint38_linear" x1="54.5763" y1="0.151149" x2="17.8182" y2="35.8158" gradientUnits="userSpaceOnUse">
<stop stop-color="#FFA500"/>
<stop offset="1" stop-color="#D6F7EE"/>
</linearGradient>
<linearGradient id="paint39_linear" x1="119.146" y1="-66.5359" x2="-4.05264" y2="52.8817" gradientUnits="userSpaceOnUse">
<stop stop-color="#FFA500"/>
<stop offset="1" stop-color="#D6F7EE"/>
</linearGradient>
<linearGradient id="paint40_linear" x1="44.043" y1="-6.41633" x2="26.2174" y2="10.8177" gradientUnits="userSpaceOnUse">
<stop stop-color="#FFA500"/>
<stop offset="1" stop-color="#D6F7EE"/>
</linearGradient>
<linearGradient id="paint41_linear" x1="75.3682" y1="-38.8232" x2="15.525" y2="19.0341" gradientUnits="userSpaceOnUse">
<stop stop-color="#FFA500"/>
<stop offset="1" stop-color="#D6F7EE"/>
</linearGradient>
<linearGradient id="paint42_linear" x1="38.8494" y1="62.3517" x2="7.03872" y2="80.669" gradientUnits="userSpaceOnUse">
<stop stop-color="#FFA500"/>
<stop offset="1" stop-color="#D6F7EE"/>
</linearGradient>
<linearGradient id="paint43_linear" x1="41.1953" y1="66.4257" x2="9.38444" y2="84.7429" gradientUnits="userSpaceOnUse">
<stop stop-color="#FFA500"/>
<stop offset="1" stop-color="#D6F7EE"/>
</linearGradient>
<linearGradient id="paint44_linear" x1="43.541" y1="70.4994" x2="11.7303" y2="88.8167" gradientUnits="userSpaceOnUse">
<stop stop-color="#FFA500"/>
<stop offset="1" stop-color="#D6F7EE"/>
</linearGradient>
<linearGradient id="paint45_linear" x1="45.6237" y1="74.1164" x2="13.8131" y2="92.4337" gradientUnits="userSpaceOnUse">
<stop stop-color="#FFA500"/>
<stop offset="1" stop-color="#D6F7EE"/>
</linearGradient>
<linearGradient id="paint46_linear" x1="45.8299" y1="13.0881" x2="-0.984786" y2="59.2729" gradientUnits="userSpaceOnUse">
<stop stop-color="#FFA500"/>
<stop offset="1" stop-color="#D6F7EE"/>
</linearGradient>
</defs>
</svg>
