<svg width="66" height="66" viewBox="0 0 66 66" fill="none" xmlns="http://www.w3.org/2000/svg">
<path d="M13.2733 28.5633C18.5533 38.94 27.06 47.41 37.4367 52.7267L45.5033 44.66C46.4933 43.67 47.96 43.34 49.2433 43.78C53.35 45.1367 57.7867 45.87 62.3333 45.87C64.35 45.87 66 47.52 66 49.5367V62.3333C66 64.35 64.35 66 62.3333 66C27.9033 66 0 38.0967 0 3.66667C0 1.65 1.65 0 3.66667 0H16.5C18.5167 0 20.1667 1.65 20.1667 3.66667C20.1667 8.25 20.9 12.65 22.2567 16.7567C22.66 18.04 22.3667 19.47 21.34 20.4967L13.2733 28.5633Z" fill="#FFA500"/>
</svg>
