<svg width="49" height="79" viewBox="0 0 49 79" fill="none" xmlns="http://www.w3.org/2000/svg">
<path d="M28.6857 34.6722C18.8743 32.0828 15.7191 29.4056 15.7191 25.2361C15.7191 20.4522 20.0845 17.1167 27.389 17.1167C35.0825 17.1167 37.9352 20.8472 38.1945 26.3333H47.7466C47.444 18.7844 42.9057 11.85 33.8723 9.61167V0H20.9057V9.48C12.5206 11.3233 5.778 16.8533 5.778 25.3239C5.778 35.4622 14.0334 40.5094 26.0923 43.45C36.8978 46.0833 39.0589 49.9456 39.0589 54.0272C39.0589 57.0556 36.9411 61.8833 27.389 61.8833C18.4853 61.8833 14.9843 57.8456 14.5088 52.6667H5C5.51866 62.2783 12.6071 67.6767 20.9057 69.4761V79H33.8723V69.5639C42.3006 67.94 49 62.9806 49 53.9833C49 41.5189 38.4971 37.2617 28.6857 34.6722Z" fill="#D6F7EE"/>
<path d="M23.6857 34.6722C13.8743 32.0828 10.7191 29.4056 10.7191 25.2361C10.7191 20.4522 15.0845 17.1167 22.389 17.1167C30.0825 17.1167 32.9352 20.8472 33.1945 26.3333H42.7466C42.444 18.7844 37.9057 11.85 28.8723 9.61167V0H15.9057V9.48C7.52063 11.3233 0.777995 16.8533 0.777995 25.3239C0.777995 35.4622 9.0334 40.5094 21.0923 43.45C31.8978 46.0833 34.0589 49.9456 34.0589 54.0272C34.0589 57.0556 31.9411 61.8833 22.389 61.8833C13.4853 61.8833 9.98428 57.8456 9.50884 52.6667H0C0.518664 62.2783 7.60707 67.6767 15.9057 69.4761V79H28.8723V69.5639C37.3006 67.94 44 62.9806 44 53.9833C44 41.5189 33.4971 37.2617 23.6857 34.6722Z" fill="#FFA500"/>
</svg>
